<svg width="130" height="164" viewBox="0 0 130 164" fill="none" xmlns="http://www.w3.org/2000/svg">
<rect y="0.900879" width="129.621" height="163" rx="18" fill="white"/>
<path d="M40.8386 108.901C37.9883 108.561 35.7335 107.625 34.0744 106.093C32.4577 104.562 31.6494 102.307 31.6494 99.3288V84.1412C31.6494 77.4195 35.0528 74.0587 41.8596 74.0587C48.5813 74.0587 51.9421 77.3132 51.9421 83.8222V100.541C51.9421 103.221 53.1971 104.562 55.7071 104.562H60.9399C63.4499 104.562 64.7049 103.221 64.7049 100.541V84.1412C64.7049 80.8655 65.4706 78.3767 67.0021 76.675C68.5762 74.9308 71.0437 74.0587 74.4045 74.0587C76.1488 74.0587 77.7228 74.4203 79.1267 75.1435C80.5306 75.8242 81.6367 76.8027 82.445 78.0789C84.0616 75.3988 86.5716 74.0587 89.975 74.0587C96.5265 74.0587 99.8023 77.3132 99.8023 83.8222V108.901H94.2505V83.7583C94.2505 80.5251 92.719 78.9085 89.656 78.9085C86.5504 78.9085 84.9976 80.5889 84.9976 83.9498V108.901H79.4458V83.7583C79.4458 82.2694 79.0416 81.0994 78.2333 80.2486C77.425 79.3552 76.2976 78.9085 74.8512 78.9085C71.7882 78.9085 70.2566 80.5889 70.2566 83.9498V100.414C70.2566 106.072 67.2574 108.901 61.2589 108.901H55.3881C49.4321 108.901 46.4542 106.072 46.4542 100.414V83.7583C46.4542 80.5251 44.9227 78.9085 41.8596 78.9085C38.754 78.9085 37.2012 80.5889 37.2012 83.9498V99.0736C37.2012 102.222 38.7966 104.051 41.9872 104.562L40.8386 108.901Z" fill="#F9B700"/>
</svg>
