<svg width="131" height="164" viewBox="0 0 131 164" fill="none" xmlns="http://www.w3.org/2000/svg">
<rect x="0.621216" y="0.900879" width="129.621" height="163" rx="18" fill="white"/>
<path d="M43.1441 110.401C39.8321 110.005 37.2121 108.918 35.2842 107.138C33.4057 105.359 32.4665 102.739 32.4665 99.2783V81.6306C32.4665 73.8201 36.4212 69.9148 44.3305 69.9148C52.141 69.9148 56.0463 73.6965 56.0463 81.2598V91.3443H63.3871V86.5986C63.3871 81.161 64.7713 77.0333 67.5396 74.2156C70.3078 71.3484 74.4355 69.9148 79.9226 69.9148C90.8969 69.9148 96.384 75.2537 96.384 85.9313V110.401H90.0071V85.8571C90.0071 78.9859 86.6456 75.5503 79.9226 75.5503C73.1997 75.5503 69.8382 79.06 69.8382 86.0796V91.3443C73.1997 91.3937 75.8938 92.3577 77.9206 94.2361C79.9968 96.1146 81.0349 98.5863 81.0349 101.651C81.0349 103.579 80.6641 105.21 79.9226 106.545C79.2306 107.83 78.2419 108.794 76.9566 109.437C75.6714 110.08 74.1389 110.401 72.3593 110.401C69.4922 110.401 67.2677 109.709 65.6858 108.325C64.1534 106.891 63.3871 104.741 63.3871 101.874V96.9055H56.0463V110.401H49.6693V81.1857C49.6693 77.4287 47.8897 75.5503 44.3305 75.5503C40.7219 75.5503 38.9176 77.5029 38.9176 81.4081V98.9817C38.9176 102.64 40.7713 104.765 44.4788 105.359L43.1441 110.401ZM72.6559 105.136C73.7435 105.136 74.4602 104.84 74.8063 104.246C75.2017 103.604 75.3995 102.763 75.3995 101.725C75.3995 100.143 74.8804 98.957 73.8423 98.1661C72.8537 97.3257 71.519 96.9055 69.8382 96.9055V101.799C69.8382 104.024 70.7774 105.136 72.6559 105.136Z" fill="#F9B700"/>
</svg>
