<svg width="201" height="41" viewBox="0 0 201 41" fill="none" xmlns="http://www.w3.org/2000/svg">
<path d="M20.5884 10.3224L22.5884 13.7865C22.8939 14.3394 23.8346 14.9417 24.4545 15.0186L28.0525 15.2506C30.4153 15.5693 30.7749 17.4563 29.1865 19.2147L26.7224 22.9468C26.2707 23.446 26.1663 23.6512 26.3564 24.3128L27.4904 28.2769C28.2722 31.0789 26.56 31.6748 24.0263 30.2769L20.7942 28.6788C20.1496 28.3218 19.1606 28.4252 18.5622 28.8128L15.0981 30.8128C12.7146 32.3571 10.8679 31.1885 11.366 28.3487L11.5981 24.7506C11.7172 24.0788 11.9667 22.9856 11.4641 22.5186L8.59806 19.5545C6.83795 17.9062 7.01119 17.2918 9.33011 16.8224L13.2942 15.6884C13.9052 15.56 14.2829 14.3977 14.5263 13.8224L16.9904 10.0904C17.9841 7.84784 19.3847 8.14257 20.5884 10.3224Z" fill="#FECA38"/>
<path d="M60.5886 9.32241L62.5886 12.7865C62.894 13.3394 63.8347 13.9417 64.4546 14.0186L68.0527 14.2506C70.4155 14.5693 70.775 16.4563 69.1866 18.2147L66.7225 21.9468C66.2708 22.446 66.1664 22.6512 66.3565 23.3128L67.4905 27.2769C68.2723 30.0789 66.5601 30.6748 64.0264 29.2769L60.7943 27.6788C60.1497 27.3218 59.1607 27.4252 58.5623 27.8128L55.0982 29.8128C52.7147 31.3571 50.868 30.1885 51.3661 27.3487L51.5982 23.7506C51.7173 23.0788 51.9668 21.9856 51.4642 21.5186L48.5982 18.5545C46.8381 16.9062 47.0113 16.2918 49.3302 15.8224L53.2943 14.6884C53.9054 14.56 54.283 13.3977 54.5264 12.8224L56.9905 9.09036C57.9842 6.84784 59.3848 7.14257 60.5886 9.32241Z" fill="#FECA38"/>
<path d="M100.589 9.32241L102.589 12.7865C102.894 13.3394 103.835 13.9417 104.455 14.0186L108.053 14.2506C110.415 14.5693 110.775 16.4563 109.187 18.2147L106.723 21.9468C106.271 22.446 106.166 22.6512 106.357 23.3128L107.49 27.2769C108.272 30.0789 106.56 30.6748 104.026 29.2769L100.794 27.6788C100.15 27.3218 99.1607 27.4252 98.5623 27.8128L95.0982 29.8128C92.7147 31.3571 90.868 30.1885 91.3661 27.3487L91.5982 23.7506C91.7173 23.0788 91.9668 21.9856 91.4642 21.5186L88.5982 18.5545C86.8381 16.9062 87.0113 16.2918 89.3302 15.8224L93.2943 14.6884C93.9054 14.56 94.283 13.3977 94.5264 12.8224L96.9905 9.09036C97.9842 6.84784 99.3848 7.14257 100.589 9.32241Z" fill="#FECA38"/>
<path d="M139.589 9.32241L141.589 12.7865C141.894 13.3394 142.835 13.9417 143.455 14.0186L147.053 14.2506C149.415 14.5693 149.775 16.4563 148.187 18.2147L145.723 21.9468C145.271 22.446 145.166 22.6512 145.357 23.3128L146.49 27.2769C147.272 30.0789 145.56 30.6748 143.026 29.2769L139.794 27.6788C139.15 27.3218 138.161 27.4252 137.562 27.8128L134.098 29.8128C131.715 31.3571 129.868 30.1885 130.366 27.3487L130.598 23.7506C130.717 23.0788 130.967 21.9856 130.464 21.5186L127.598 18.5545C125.838 16.9062 126.011 16.2918 128.33 15.8224L132.294 14.6884C132.905 14.56 133.283 13.3977 133.526 12.8224L135.99 9.09036C136.984 6.84784 138.385 7.14257 139.589 9.32241Z" fill="#FECA38"/>
<path d="M179.589 9.32241L181.589 12.7865C181.894 13.3394 182.835 13.9417 183.455 14.0186L187.053 14.2506C189.415 14.5693 189.775 16.4563 188.187 18.2147L185.723 21.9468C185.271 22.446 185.166 22.6512 185.357 23.3128L186.49 27.2769C187.272 30.0789 185.56 30.6748 183.026 29.2769L179.794 27.6788C179.15 27.3218 178.161 27.4252 177.562 27.8128L174.098 29.8128C171.715 31.3571 169.868 30.1885 170.366 27.3487L170.598 23.7506C170.717 23.0788 170.967 21.9856 170.464 21.5186L167.598 18.5545C165.838 16.9062 166.011 16.2918 168.33 15.8224L172.294 14.6884C172.905 14.56 173.283 13.3977 173.526 12.8224L175.99 9.09036C176.984 6.84784 178.385 7.14257 179.589 9.32241Z" fill="#FECA38"/>
</svg>
