<svg width="130" height="164" viewBox="0 0 130 164" fill="none" xmlns="http://www.w3.org/2000/svg">
<rect x="0.242432" y="0.900879" width="129.621" height="163" rx="18" fill="white"/>
<path d="M41.081 108.901C38.2307 108.561 35.9759 107.625 34.3168 106.093C32.7002 104.562 31.8919 102.307 31.8919 99.3288V84.1412C31.8919 77.4195 35.2953 74.0587 42.102 74.0587C48.8237 74.0587 52.1846 77.3132 52.1846 83.8222V100.541C52.1846 103.221 53.4396 104.562 55.9496 104.562H61.1823C63.6923 104.562 64.9473 103.221 64.9473 100.541V84.1412C64.9473 80.8655 65.713 78.3767 67.2446 76.675C68.8186 74.9308 71.2861 74.0587 74.6469 74.0587C76.3912 74.0587 77.9652 74.4203 79.3691 75.1435C80.773 75.8242 81.8791 76.8027 82.6874 78.0789C84.3041 75.3988 86.8141 74.0587 90.2174 74.0587C96.769 74.0587 100.045 77.3132 100.045 83.8222V108.901H94.493V83.7583C94.493 80.5251 92.9614 78.9085 89.8984 78.9085C86.7928 78.9085 85.24 80.5889 85.24 83.9498V108.901H79.6882V83.7583C79.6882 82.2694 79.2841 81.0994 78.4758 80.2486C77.6675 79.3552 76.5401 78.9085 75.0936 78.9085C72.0306 78.9085 70.4991 80.5889 70.4991 83.9498V100.414C70.4991 106.072 67.4998 108.901 61.5014 108.901H55.6305C49.6746 108.901 46.6966 106.072 46.6966 100.414V83.7583C46.6966 80.5251 45.1651 78.9085 42.102 78.9085C38.9964 78.9085 37.4437 80.5889 37.4437 83.9498V99.0736C37.4437 102.222 39.039 104.051 42.2297 104.562L41.081 108.901Z" fill="#F9B700"/>
</svg>
