<svg width="131" height="164" viewBox="0 0 131 164" fill="none" xmlns="http://www.w3.org/2000/svg">
<rect x="0.863647" y="0.900879" width="129.621" height="163" rx="18" fill="white"/>
<path d="M43.3866 110.401C40.0745 110.005 37.4545 108.918 35.5266 107.138C33.6482 105.359 32.7089 102.739 32.7089 99.2783V81.6306C32.7089 73.8201 36.6636 69.9148 44.573 69.9148C52.3835 69.9148 56.2887 73.6965 56.2887 81.2598V91.3443H63.6296V86.5986C63.6296 81.161 65.0137 77.0333 67.782 74.2156C70.5503 71.3484 74.678 69.9148 80.1651 69.9148C91.1393 69.9148 96.6264 75.2537 96.6264 85.9313V110.401H90.2495V85.8571C90.2495 78.9859 86.888 75.5503 80.1651 75.5503C73.4421 75.5503 70.0806 79.06 70.0806 86.0796V91.3443C73.4421 91.3937 76.1362 92.3577 78.163 94.2361C80.2392 96.1146 81.2773 98.5863 81.2773 101.651C81.2773 103.579 80.9066 105.21 80.1651 106.545C79.473 107.83 78.4843 108.794 77.1991 109.437C75.9138 110.08 74.3814 110.401 72.6018 110.401C69.7346 110.401 67.5101 109.709 65.9282 108.325C64.3958 106.891 63.6296 104.741 63.6296 101.874V96.9055H56.2887V110.401H49.9118V81.1857C49.9118 77.4287 48.1322 75.5503 44.573 75.5503C40.9643 75.5503 39.16 77.5029 39.16 81.4081V98.9817C39.16 102.64 41.0137 104.765 44.7213 105.359L43.3866 110.401ZM72.8984 105.136C73.9859 105.136 74.7027 104.84 75.0487 104.246C75.4442 103.604 75.6419 102.763 75.6419 101.725C75.6419 100.143 75.1229 98.957 74.0848 98.1661C73.0961 97.3257 71.7614 96.9055 70.0806 96.9055V101.799C70.0806 104.024 71.0199 105.136 72.8984 105.136Z" fill="#F9B700"/>
</svg>
