<svg width="430" height="391" viewBox="0 0 430 391" fill="none" xmlns="http://www.w3.org/2000/svg">
<ellipse cx="265.243" cy="281.66" rx="74.7392" ry="8.82372" transform="rotate(8.78024 265.243 281.66)" fill="#E0E6EA"/>
<path d="M133.796 163.01C149.11 177.469 157.912 156.708 164.997 149.179C166.584 147.493 168.831 146.745 171.085 146.21L184.59 143.001L180.594 112.316L167.091 115.017C159.939 115.352 116.847 147.008 133.796 163.01Z" fill="#01C070"/>
<path d="M409.642 113.711C394.328 99.2519 385.525 120.013 378.441 127.541C376.854 129.228 374.607 129.976 372.353 130.511L358.848 133.719L362.844 164.404L376.346 161.703C383.499 161.369 426.59 129.713 409.642 113.711Z" fill="#01C070"/>
<path d="M374.052 68.2876C375.452 52.4559 368.02 43.6155 351.755 41.7663L212.123 25.8911C195.938 24.0509 186.75 31.0018 184.56 46.7437L169.497 179.234C168.088 195.145 175.476 204.02 191.662 205.861L331.294 221.736C347.558 223.585 356.79 216.599 358.989 200.778L374.052 68.2876Z" fill="#01C070"/>
<path d="M242.731 69.1701C237.347 68.376 232.491 69.6146 228.164 72.8861C223.772 76.148 221.184 80.438 220.4 85.756C219.606 91.1389 220.846 95.9933 224.118 100.319C227.316 104.701 231.608 107.288 236.992 108.082C242.376 108.877 247.232 107.638 251.559 104.366C255.941 101.169 258.529 96.8794 259.323 91.4965C260.107 86.1785 258.868 81.324 255.605 76.9332C252.406 72.5519 248.115 69.9642 242.731 69.1701Z" fill="white"/>
<path d="M241.583 76.9526C238.404 76.4838 235.508 77.2493 232.893 79.2492C230.223 81.1747 228.653 83.7263 228.185 86.9042C227.706 90.1469 228.468 93.0754 230.468 95.6897C232.404 98.2945 234.961 99.8313 238.14 100.3C241.383 100.778 244.308 100.05 246.913 98.1151C249.518 96.1801 251.06 93.5912 251.538 90.3485C252.007 87.1706 251.273 84.2793 249.338 81.6746C247.412 79.005 244.827 77.431 241.583 76.9526Z" fill="#3D465D"/>
<path d="M301.115 77.7809C295.731 76.9868 290.875 78.2255 286.548 81.4969C282.157 84.7589 279.569 89.0488 278.784 94.3668C277.99 99.7497 279.23 104.604 282.502 108.93C285.701 113.311 289.992 115.899 295.376 116.693C300.76 117.487 305.616 116.249 309.943 112.977C314.325 109.78 316.913 105.49 317.707 100.107C318.491 94.7893 317.252 89.9349 313.989 85.544C310.791 81.1627 306.499 78.575 301.115 77.7809Z" fill="white"/>
<path d="M299.967 85.5632C296.789 85.0944 293.892 85.8599 291.277 87.8598C288.607 89.7853 287.037 92.3369 286.569 95.5148C286.09 98.7575 286.852 101.686 288.852 104.3C290.788 106.905 293.345 108.442 296.524 108.911C299.767 109.389 302.692 108.661 305.297 106.726C307.902 104.791 309.444 102.202 309.922 98.9591C310.391 95.7812 309.658 92.8899 307.722 90.2852C305.796 87.6156 303.211 86.0416 299.967 85.5632Z" fill="#3D465D"/>
<path d="M219.333 73.5352C219.653 74.5101 220.346 75.2086 221.41 75.6307L257.479 91.2875C258.478 91.7 259.503 91.7186 260.553 91.3432C261.537 90.9584 262.241 90.2338 262.663 89.1695L265.811 81.9803C266.233 80.916 266.247 79.9241 265.852 79.0044C265.412 77.9455 264.692 77.2098 263.692 76.7973L227.624 61.1405C226.559 60.7185 225.562 60.7371 224.633 61.1964C223.593 61.5068 222.862 62.1942 222.44 63.2585L219.291 70.4477C218.869 71.512 218.883 72.5411 219.333 73.5352Z" fill="#3D465D"/>
<path d="M281.238 68.2891C280.153 68.4603 279.278 68.994 278.616 69.8903C277.908 70.6473 277.602 71.5961 277.699 72.7369L278.638 80.5289C278.735 81.6697 279.231 82.5713 280.128 83.2336C280.96 83.8864 281.918 84.1272 283.004 83.956L322.042 79.4757C323.183 79.3789 324.085 78.8824 324.748 77.9861C325.391 77.2195 325.664 76.2659 325.567 75.1251L324.628 67.3331C324.532 66.1923 324.067 65.2955 323.236 64.6427C322.404 63.9899 321.418 63.7119 320.277 63.8087L281.238 68.2891Z" fill="#3D465D"/>
<path d="M284.357 123.318C283.535 122.6 282.549 122.322 281.398 122.484C280.322 122.59 279.43 123.022 278.722 123.779C278.097 124.416 277.251 124.987 276.182 125.492C273.562 126.629 270.63 126.959 267.386 126.481C265.894 126.261 264.519 125.925 263.26 125.474C262.186 125.117 261.151 125.164 260.157 125.613C259.182 125.933 258.483 126.625 258.061 127.69C257.658 128.624 257.714 129.593 258.229 130.597C258.633 131.452 259.4 132.095 260.529 132.527C262.224 133.174 264.141 133.656 266.282 133.971C271.277 134.708 275.763 134.177 279.74 132.378L279.628 132.461C282.035 131.424 283.881 130.139 285.168 128.606C285.821 127.775 286.089 126.854 285.973 125.842C285.802 124.757 285.263 123.915 284.357 123.318Z" fill="#3D465D"/>
<path d="M351.755 41.7662C368.02 43.6154 375.452 52.4559 374.052 68.2875L374.994 59.9995C376.879 43.4233 369.491 34.1882 352.832 32.2942L213.2 16.419C196.62 14.5339 187.387 21.8794 185.503 38.4555L184.56 46.7436C186.75 31.0017 195.938 24.0508 212.123 25.891L351.755 41.7662Z" fill="#25D28A"/>
<path d="M331.198 39.5512C322.767 51.7797 310.052 54.7486 304.749 54.7044L311.89 37.356L331.198 39.5512Z" fill="#1DA16A"/>
<path d="M273.712 266.161L273.068 227.835L249.209 226.948L245.041 263.612L199.531 258.438C181.514 251.301 196.929 244.258 206.888 241.629L209.076 222.385C176.035 216.002 168.542 194.304 169.122 182.531C231.533 222.653 321.454 213.611 358.614 204.075C347.991 226.872 325.741 229.914 315.944 228.586C315.944 228.586 311.807 252.575 321.844 257.241C334.453 266.901 327.977 270.961 323.162 271.783L273.712 266.161Z" fill="#009F5D"/>
<path d="M283.813 39.1584C318.157 -1.94693 332.443 39.4208 304.058 58.6654C268.434 69.3354 255.676 47.0314 253.75 34.5456C267.95 -2.07361 285.932 20.5213 283.813 39.1584Z" fill="#01C070"/>
<path d="M27.236 219.761C38.6004 236.995 51.6571 219.236 60.1255 213.593C62.053 212.309 64.4129 212.094 66.7289 212.089L80.3005 212.061L83.3842 181.824L69.8674 181.369C62.9535 180.079 14.6327 200.649 27.236 219.761Z" fill="#FCDA40"/>
<path d="M314.228 220.321C304.167 202.295 289.835 219.042 280.973 224.044C278.956 225.182 276.587 225.222 274.277 225.056L260.74 224.083L255.432 254.008L268.878 255.461C275.678 257.257 325.386 240.312 314.228 220.321Z" fill="#FCDA40"/>
<path d="M275.447 164.727C278.179 149.357 271.668 140.068 255.914 136.86L120.662 109.313C104.984 106.119 95.3967 112.13 91.8998 127.343L65.7617 255.678C63.0141 271.124 69.4793 280.443 85.1573 283.636L220.409 311.183C236.163 314.392 245.797 308.351 249.309 293.061L275.447 164.727Z" fill="#FCDA40"/>
<path d="M129.214 154.168C123.783 157.76 120.429 162.691 119.153 168.96C117.86 175.306 119.018 181.156 122.627 186.509C126.144 191.924 131.077 195.277 137.424 196.57C143.772 197.863 149.623 196.706 154.978 193.098C160.393 189.583 163.747 184.652 165.039 178.306C166.316 172.036 165.158 166.187 161.565 160.757C158.048 155.342 153.115 151.988 146.768 150.696C140.42 149.403 134.569 150.56 129.214 154.168Z" fill="white"/>
<path d="M146.928 185.452C149.256 183.777 150.72 181.466 151.321 178.519C151.909 175.63 151.459 172.96 149.971 170.508C148.495 167.997 146.395 166.464 143.669 165.909C140.998 165.365 138.492 165.959 136.152 167.693C133.769 169.357 132.283 171.633 131.695 174.521C131.095 177.469 131.566 180.174 133.108 182.637C134.596 185.089 136.675 186.587 139.346 187.131C142.072 187.686 144.599 187.127 146.928 185.452Z" fill="#3D465D"/>
<path d="M198.045 168.187C192.614 171.779 189.26 176.709 187.983 182.979C186.69 189.325 187.849 195.175 191.458 200.528C194.975 205.943 199.907 209.296 206.255 210.589C212.602 211.882 218.453 210.725 223.808 207.117C229.223 203.601 232.577 198.671 233.87 192.325C235.147 186.055 233.988 180.205 230.395 174.775C226.878 169.361 221.946 166.007 215.598 164.714C209.25 163.422 203.399 164.579 198.045 168.187Z" fill="white"/>
<path d="M216.476 197.442C218.788 195.754 220.246 193.429 220.849 190.467C221.44 187.565 221.002 184.885 219.535 182.426C218.08 179.909 216.002 178.376 213.303 177.826C210.658 177.287 208.173 177.892 205.849 179.639C203.483 181.316 202.005 183.606 201.414 186.509C200.811 189.471 201.27 192.186 202.791 194.655C204.258 197.113 206.314 198.611 208.96 199.15C211.659 199.7 214.165 199.131 216.476 197.442Z" fill="#3D465D"/>
<path d="M255.914 136.859C271.668 140.068 278.179 149.357 275.447 164.727L277.082 156.699C280.353 140.642 273.919 130.971 257.782 127.684L122.531 100.138C106.47 96.8665 96.8051 103.259 93.5349 119.315L91.8998 127.343C95.3967 112.13 104.984 106.119 120.662 109.312L255.914 136.859Z" fill="#FFE677"/>
<ellipse cx="113.711" cy="207.665" rx="14.1262" ry="12.2892" transform="rotate(8.70226 113.711 207.665)" fill="#FFE677"/>
<ellipse cx="217.612" cy="229.547" rx="14.1262" ry="12.2892" transform="rotate(8.70226 217.612 229.547)" fill="#FFE677"/>
<path opacity="0.9" d="M235.991 132.923C226.69 144.163 213.994 145.973 208.809 145.474L217.289 129.114L235.991 132.923Z" fill="#D0B126"/>
<path d="M160.247 349.695L162.915 312.141L139.648 309.22L132.415 344.734L88.3323 335.756C71.3184 327.223 87.0065 321.658 96.9772 319.943L100.774 301.302C68.9953 292.214 63.5312 270.34 65.1112 258.872C122.723 303.497 211.481 302.388 248.659 296.255C236.304 317.645 214.273 318.708 204.801 316.565C204.801 316.565 198.69 339.68 208.108 345.109C219.613 355.645 212.928 359.06 208.147 359.451L160.247 349.695Z" fill="#EDC200"/>
<path d="M190.058 126.523C227.996 85.3406 237.709 130.505 207.882 148.849C171.848 157.505 161.655 132.769 161.062 119.319C178.784 81.3827 194.07 106.827 190.058 126.523Z" fill="#FCDA40"/>
<ellipse cx="154.36" cy="381.816" rx="79.0753" ry="8.82372" fill="#E0E6EA"/>
<ellipse cx="165.413" cy="224.776" rx="14.1832" ry="16.8577" transform="rotate(15 165.413 224.776)" fill="#3D465D"/>
<path d="M68.2176 64.3583L71.2613 69.3299C71.6784 70.0123 72.677 70.634 73.4779 70.6885L78.248 71.0749C81.3019 71.3156 82.1806 73.4365 80.2135 75.7858L76.8611 79.7666C76.3016 80.4336 76.0506 81.67 76.3239 82.4988L77.7571 86.9474C78.885 90.4597 77.1046 92.015 73.7838 90.4123L69.1449 88.1729C68.3 87.7633 66.9921 87.8863 66.239 88.4214L62.0493 91.4041C59.0499 93.5364 57.027 92.3096 57.5443 88.6598L58.2092 84.0403C58.3332 83.1768 57.892 81.999 57.225 81.4395L53.2229 78.0824C50.8866 76.1071 51.3925 73.8691 54.3556 73.1098L58.9825 71.9276C59.7631 71.7215 60.6445 70.9586 60.9326 70.2093L63.0898 64.7838C64.2707 61.8598 66.574 61.6674 68.2176 64.3583Z" fill="#F9B700"/>
<path d="M117.891 63.6853L120.489 67.9286C120.845 68.5111 121.697 69.0417 122.381 69.0883L126.452 69.418C129.058 69.6235 129.808 71.4337 128.129 73.4388L125.268 76.8365C124.791 77.4058 124.576 78.461 124.81 79.1684L126.033 82.9653C126.996 85.9631 125.476 87.2906 122.642 85.9226L118.682 84.0113C117.961 83.6617 116.845 83.7666 116.202 84.2234L112.626 86.7692C110.066 88.589 108.34 87.542 108.781 84.4268L109.349 80.4841C109.455 79.7471 109.078 78.7418 108.509 78.2643L105.093 75.399C103.099 73.713 103.531 71.8029 106.06 71.1548L110.009 70.1458C110.675 69.9699 111.427 69.3188 111.673 68.6793L113.514 64.0485C114.522 61.5529 116.488 61.3886 117.891 63.6853Z" fill="#FECA38"/>
<path d="M69.586 116.249L71.655 119.628C71.9385 120.092 72.6172 120.515 73.1617 120.552L76.4042 120.815C78.4801 120.978 79.0774 122.42 77.7402 124.017L75.4615 126.723C75.0811 127.176 74.9105 128.017 75.0963 128.58L76.0705 131.604C76.8372 133.992 75.627 135.049 73.3697 133.959L70.2163 132.437C69.642 132.159 68.7529 132.242 68.241 132.606L65.3931 134.634C63.3542 136.083 61.9791 135.249 62.3307 132.768L62.7827 129.628C62.867 129.041 62.5671 128.24 62.1137 127.86L59.3933 125.578C57.8051 124.235 58.149 122.714 60.1632 122.198L63.3084 121.394C63.839 121.254 64.4381 120.736 64.634 120.226L66.1003 116.538C66.9031 114.551 68.4687 114.42 69.586 116.249Z" fill="#FFE980"/>
<path d="M98.7151 112.998L278.199 152.682L276.933 159.992L274.587 170.875L91.5912 130.808L91.9892 127.258C92.4526 123.126 93.4363 119.069 94.9168 115.183L95.6821 112.353L98.7151 112.998Z" fill="#FF4362"/>
<path d="M2.61037 200.897C1.61718 197.095 4.48601 193.38 8.41557 193.38H80.988C83.7265 193.38 86.1174 195.234 86.7991 197.887L101.231 254.037C102.206 257.834 99.3393 261.531 95.4195 261.531L23.0837 261.531C20.354 261.531 17.9684 259.688 17.2785 257.047L2.61037 200.897Z" fill="#4F4F4F"/>
<path d="M95.3605 248.706H131.627C135.169 248.706 138.04 251.577 138.04 255.119C138.04 258.66 135.169 261.531 131.627 261.531H95.3605V248.706Z" fill="#4F4F4F"/>
<ellipse cx="51.9017" cy="227.456" rx="6.17426" ry="8.06091" transform="rotate(-13.9979 51.9017 227.456)" fill="white"/>
<path d="M384.649 97.5832L390.409 101.569L392.386 104.993C396.5 112.118 381.917 122.769 374.111 127.204L338.427 130.1L337.159 121.546C347.613 114.82 366.185 116.593 374.164 118.32C375.651 106.233 381.773 99.4594 384.649 97.5832Z" fill="white"/>
<path d="M374.447 121.775L334.351 127.384L346.313 175.506L386.886 168.934L389.121 167.857C391.848 166.543 394.241 164.628 396.119 162.255L407.752 147.565L394.345 98.4617C394.105 97.5834 392.908 97.4483 392.476 98.2498C387.513 107.461 378.523 122.219 374.447 121.775Z" fill="#FF4362"/>
<path d="M375.76 127.156L335.694 131.691L346.234 175.151L387.038 169.164L375.76 127.156Z" fill="#D80041"/>
</svg>
