<svg width="490" height="355" viewBox="0 0 490 355" fill="none" xmlns="http://www.w3.org/2000/svg">
<path d="M367.637 260.913V326.395M367.637 326.395L414.754 336.104M367.637 326.395L325.344 336.104" stroke="black" stroke-width="6"/>
<rect x="274.936" y="109.876" width="210.512" height="166.45" rx="8" fill="white" stroke="black" stroke-width="8"/>
<g clip-path="url(#clip0_590_510)">
<path d="M324.156 166.923C323.279 166.433 322.549 165.943 321.964 165.452C321.38 164.962 320.905 164.415 320.54 163.811C320.174 163.207 319.914 162.524 319.759 161.763C319.604 161.001 319.527 160.113 319.527 159.098V150.169C319.527 148.839 319.695 147.653 320.033 146.611C320.371 145.57 320.818 144.69 321.376 143.972C321.933 143.255 322.572 142.707 323.293 142.331C324.014 141.955 324.767 141.766 325.553 141.766H328.292C329.479 141.766 330.414 142.138 331.099 142.883C331.784 143.627 332.126 144.83 332.126 146.493V160.673C332.126 162.039 332.414 162.993 332.989 163.535C333.565 164.078 334.373 164.349 335.413 164.349H340.891C341.494 164.349 342.005 164.284 342.425 164.152C342.845 164.021 343.187 163.811 343.452 163.522C343.717 163.233 343.904 162.856 344.014 162.393C344.123 161.929 344.178 161.355 344.178 160.673V145.442C344.178 144.725 344.242 144.129 344.37 143.657C344.498 143.185 344.708 142.808 345 142.528C345.292 142.248 345.685 142.051 346.178 141.937C346.672 141.823 347.283 141.766 348.013 141.766H353.492C354.386 141.766 355.177 141.876 355.861 142.095C356.546 142.314 357.116 142.672 357.573 143.171C358.03 143.67 358.377 144.318 358.614 145.115C358.851 145.912 358.971 146.896 358.971 148.069V162.774C358.971 163.335 359.062 163.738 359.245 163.983C359.427 164.228 359.793 164.35 360.34 164.35C360.869 164.35 361.23 164.206 361.422 163.917C361.614 163.628 361.71 163.247 361.71 162.775V145.442C361.71 144.725 361.773 144.129 361.902 143.657C362.03 143.185 362.24 142.808 362.532 142.528C362.824 142.248 363.216 142.051 363.709 141.937C364.202 141.823 364.813 141.766 365.544 141.766H371.023C371.917 141.766 372.707 141.876 373.392 142.095C374.077 142.314 374.647 142.672 375.104 143.171C375.56 143.67 375.908 144.318 376.145 145.115C376.382 145.912 376.502 146.896 376.502 148.069V166.451H371.571V148.068C371.571 146.493 371.292 145.399 370.736 144.786C370.179 144.173 369.362 143.867 368.284 143.867H365.545C365.179 143.867 364.887 143.889 364.668 143.932C364.449 143.976 364.285 144.055 364.175 144.168C364.066 144.282 363.993 144.444 363.956 144.654C363.918 144.865 363.901 145.128 363.901 145.442V162.774C363.901 163.509 363.795 164.117 363.585 164.599C363.375 165.081 363.106 165.457 362.777 165.728C362.449 166 362.069 166.188 361.641 166.292C361.212 166.397 360.778 166.45 360.34 166.45H357.6C356.468 166.45 355.592 166.152 354.971 165.557C354.349 164.962 354.039 164.034 354.039 162.774V148.068C354.039 146.493 353.761 145.399 353.204 144.786C352.647 144.173 351.83 143.867 350.753 143.867H348.013C347.648 143.867 347.356 143.889 347.137 143.932C346.917 143.976 346.753 144.055 346.644 144.168C346.535 144.282 346.461 144.444 346.425 144.654C346.388 144.865 346.37 145.128 346.37 145.442V160.673C346.37 161.759 346.27 162.673 346.069 163.417C345.868 164.161 345.548 164.756 345.11 165.202C344.672 165.649 344.105 165.969 343.412 166.161C342.718 166.354 341.878 166.45 340.892 166.45H332.675C330.867 166.45 329.502 165.982 328.58 165.045C327.657 164.108 327.196 162.651 327.196 160.673V146.493C327.196 145.531 327.041 144.852 326.731 144.458C326.42 144.065 326.027 143.867 325.553 143.867C325.042 143.867 324.553 144.003 324.088 144.274C323.621 144.546 323.215 144.948 322.868 145.482C322.521 146.016 322.243 146.677 322.033 147.465C321.823 148.252 321.718 149.154 321.718 150.169V159.097C321.718 159.868 321.782 160.55 321.91 161.145C322.038 161.741 322.239 162.274 322.513 162.747C322.787 163.22 323.147 163.649 323.595 164.034C324.042 164.419 324.595 164.795 325.252 165.163L324.156 166.923Z" fill="black"/>
<path d="M390.42 166.923C389.543 166.433 388.84 165.912 388.31 165.36C387.781 164.809 387.37 164.183 387.078 163.483C386.786 162.783 386.589 161.991 386.489 161.107C386.389 160.223 386.339 159.203 386.339 158.048V149.119C386.339 147.929 386.498 146.874 386.818 145.955C387.138 145.035 387.558 144.265 388.079 143.644C388.599 143.023 389.188 142.554 389.846 142.239C390.502 141.924 391.16 141.766 391.816 141.766H394.556C395.103 141.766 395.61 141.85 396.076 142.016C396.541 142.182 396.947 142.454 397.295 142.83C397.641 143.206 397.911 143.696 398.103 144.3C398.294 144.904 398.39 145.635 398.39 146.493V153.846C399.833 153.846 401.193 153.951 402.472 154.161C403.75 154.371 404.946 154.66 406.06 155.027V149.119C406.06 147.771 406.242 146.629 406.608 145.693C406.973 144.756 407.475 143.999 408.114 143.421C408.753 142.843 409.506 142.423 410.374 142.161C411.241 141.898 412.177 141.767 413.181 141.767H420.303C421.344 141.767 422.303 141.911 423.18 142.2C424.056 142.489 424.809 142.961 425.439 143.618C426.069 144.274 426.558 145.136 426.905 146.204C427.251 147.272 427.425 148.594 427.425 150.169V162.774C427.425 163.334 427.517 163.737 427.7 163.982C427.882 164.227 428.247 164.35 428.795 164.35C429.324 164.35 429.685 164.206 429.877 163.917C430.069 163.628 430.164 163.247 430.164 162.774V151.22C430.164 149.75 430.123 148.511 430.041 147.505C429.959 146.498 429.813 145.64 429.603 144.931C429.393 144.222 429.114 143.623 428.768 143.133C428.421 142.643 427.982 142.187 427.453 141.767H436.739C437.907 141.767 438.907 141.907 439.738 142.187C440.569 142.467 441.249 142.923 441.779 143.553C442.308 144.183 442.697 144.997 442.943 145.995C443.189 146.992 443.312 148.209 443.312 149.645V166.451H438.382V149.645C438.382 148.595 438.295 147.701 438.122 146.966C437.948 146.231 437.679 145.632 437.314 145.167C436.948 144.704 436.492 144.371 435.944 144.169C435.396 143.968 434.748 143.867 433.999 143.867H431.643C431.863 144.602 432.036 145.557 432.164 146.729C432.292 147.903 432.356 149.399 432.356 151.22V162.774C432.356 163.509 432.251 164.117 432.041 164.599C431.831 165.081 431.561 165.457 431.233 165.728C430.904 166 430.525 166.188 430.096 166.292C429.667 166.397 429.233 166.45 428.795 166.45H426.056C424.923 166.45 424.047 166.152 423.426 165.557C422.805 164.962 422.495 164.034 422.495 162.774V150.169C422.495 148.997 422.367 148.007 422.111 147.202C421.856 146.397 421.504 145.745 421.057 145.246C420.609 144.747 420.085 144.392 419.482 144.182C418.879 143.972 418.24 143.867 417.565 143.867H413.182C412.433 143.867 411.757 143.959 411.155 144.143C410.552 144.327 410.036 144.625 409.607 145.035C409.178 145.447 408.844 145.985 408.607 146.651C408.369 147.316 408.251 148.139 408.251 149.119V155.894C409.292 156.384 410.218 156.936 411.031 157.549C411.843 158.161 412.533 158.805 413.099 159.479C413.665 160.153 414.095 160.835 414.387 161.527C414.679 162.219 414.825 162.897 414.825 163.562C414.825 164.665 414.423 165.51 413.62 166.096C412.816 166.682 411.757 166.976 410.442 166.976C408.999 166.976 407.908 166.621 407.169 165.912C406.429 165.203 406.059 163.982 406.059 162.249V157.706C405.055 157.199 403.913 156.778 402.635 156.446C401.357 156.114 399.942 155.947 398.39 155.947V166.451H393.459V146.493C393.459 145.951 393.418 145.508 393.336 145.167C393.254 144.825 393.139 144.559 392.993 144.366C392.847 144.174 392.673 144.042 392.473 143.973C392.271 143.903 392.052 143.868 391.815 143.868C391.45 143.868 391.071 143.978 390.679 144.196C390.286 144.415 389.93 144.743 389.61 145.181C389.291 145.619 389.03 146.166 388.83 146.822C388.628 147.479 388.528 148.245 388.528 149.12V158.048C388.528 159.011 388.56 159.855 388.624 160.582C388.688 161.308 388.825 161.952 389.035 162.512C389.245 163.072 389.546 163.562 389.939 163.982C390.332 164.402 390.857 164.796 391.514 165.164L390.42 166.923ZM408.251 159.124V162.249C408.251 162.949 408.397 163.474 408.69 163.825C408.982 164.175 409.384 164.35 409.895 164.35C410.315 164.35 410.602 164.258 410.758 164.074C410.913 163.89 410.991 163.632 410.991 163.3C410.991 162.74 410.758 162.083 410.292 161.33C409.826 160.577 409.146 159.842 408.251 159.124Z" fill="black"/>
</g>
<path d="M322.675 245.706C321.793 245.215 321.086 244.695 320.553 244.143C320.021 243.591 319.608 242.966 319.314 242.266C319.02 241.565 318.823 240.774 318.722 239.889C318.621 239.006 318.571 237.985 318.571 236.83V231.578C318.571 229.53 318.777 227.806 319.191 226.405C319.604 225.005 320.196 223.871 320.968 223.005C321.739 222.138 322.666 221.513 323.75 221.127C324.833 220.743 326.045 220.55 327.386 220.55H333.997V222.651C333.446 223.123 332.964 223.635 332.551 224.187C332.138 224.739 331.793 225.426 331.518 226.249C331.242 227.071 331.036 228.078 330.898 229.268C330.76 230.459 330.691 231.93 330.691 233.679V237.881C330.691 239.755 331.086 241.098 331.875 241.912C332.665 242.726 333.923 243.133 335.649 243.133H344.739C346.465 243.133 347.723 242.717 348.513 241.885C349.302 241.054 349.697 239.719 349.697 237.881V230.003C349.697 228.655 349.54 227.513 349.228 226.576C348.916 225.64 348.434 224.882 347.783 224.304C347.131 223.727 346.304 223.306 345.304 223.044C344.303 222.781 343.105 222.651 341.709 222.651V220.549H354.381C355.666 220.549 356.759 220.693 357.659 220.982C358.558 221.271 359.298 221.682 359.876 222.216C360.454 222.75 360.877 223.407 361.143 224.186C361.409 224.965 361.543 225.853 361.543 226.851V245.233H356.584V226.851C356.584 225.626 356.166 224.619 355.331 223.831C354.495 223.044 353.26 222.65 351.626 222.65H349.422C350.285 223.421 350.914 224.405 351.309 225.604C351.704 226.803 351.901 228.269 351.901 230.003V237.88C351.901 240.384 351.29 242.235 350.07 243.435C348.848 244.634 347.071 245.233 344.74 245.233H332.895C330.563 245.233 328.786 244.642 327.565 243.461C326.344 242.279 325.734 240.419 325.734 237.88V233.679C325.734 232.191 325.789 230.869 325.899 229.714C326.009 228.558 326.192 227.534 326.45 226.642C326.707 225.749 327.042 224.979 327.455 224.331C327.868 223.683 328.368 223.122 328.956 222.65H327.386C326.339 222.65 325.407 222.79 324.59 223.07C323.773 223.35 323.08 223.831 322.51 224.515C321.941 225.197 321.509 226.112 321.215 227.259C320.922 228.405 320.775 229.845 320.775 231.578V236.83C320.775 237.793 320.807 238.638 320.871 239.364C320.935 240.091 321.073 240.734 321.284 241.294C321.495 241.855 321.798 242.344 322.193 242.765C322.588 243.185 323.116 243.579 323.777 243.946L322.675 245.706Z" fill="black"/>
<path d="M419.716 207.458C418.834 206.968 418.099 206.477 417.512 205.987C416.924 205.497 416.447 204.95 416.079 204.346C415.712 203.742 415.45 203.059 415.294 202.298C415.137 201.537 415.06 200.648 415.06 199.633V189.654C415.06 188.464 415.22 187.409 415.542 186.49C415.863 185.57 416.286 184.8 416.809 184.179C417.333 183.558 417.925 183.089 418.586 182.774C419.247 182.459 419.909 182.301 420.569 182.301H423.324C423.875 182.301 424.384 182.384 424.852 182.551C425.321 182.717 425.729 182.989 426.078 183.365C426.427 183.741 426.698 184.231 426.891 184.835C427.083 185.439 427.18 186.17 427.18 187.028V201.208C427.18 202.574 427.469 203.528 428.048 204.07C428.627 204.613 429.439 204.884 430.485 204.884H435.058C434.122 204.253 433.4 203.466 432.896 202.521C432.39 201.575 432.138 200.438 432.138 199.107V193.33C432.138 191.895 432.423 190.512 432.992 189.181C433.561 187.851 434.411 186.673 435.54 185.649C436.67 184.625 438.074 183.811 439.755 183.207C441.435 182.603 443.395 182.301 445.636 182.301C447.711 182.301 449.529 182.472 451.09 182.814C452.65 183.155 454.01 183.614 455.166 184.192C456.323 184.77 457.31 185.44 458.127 186.201C458.945 186.962 459.647 187.763 460.235 188.603C457.204 188.603 454.377 188.792 451.75 189.168C449.124 189.544 446.742 190.048 444.602 190.677C442.463 191.308 440.58 192.034 438.955 192.857C437.33 193.68 435.985 194.547 434.92 195.457C437.289 195.493 439.493 195.711 441.531 196.113C443.569 196.517 445.433 197.042 447.123 197.689C448.812 198.337 450.322 199.068 451.654 199.882C452.985 200.696 454.133 201.523 455.097 202.364C456.061 203.205 456.833 204.027 457.411 204.832C457.99 205.638 458.379 206.356 458.582 206.986H453.623C453.403 206.269 452.957 205.533 452.287 204.78C451.617 204.028 450.781 203.301 449.781 202.601C448.78 201.901 447.655 201.245 446.406 200.631C445.157 200.019 443.853 199.48 442.495 199.016C441.135 198.553 439.758 198.189 438.363 197.927C436.967 197.664 435.626 197.533 434.341 197.533V199.109C434.341 200.212 434.603 201.135 435.126 201.879C435.649 202.623 436.375 203.218 437.302 203.664C438.229 204.111 439.33 204.426 440.607 204.61C441.883 204.794 443.283 204.885 444.808 204.885V206.986H427.729C425.911 206.986 424.539 206.518 423.612 205.581C422.684 204.645 422.22 203.187 422.22 201.209V187.028C422.22 186.486 422.179 186.043 422.096 185.702C422.014 185.36 421.899 185.094 421.752 184.901C421.605 184.709 421.43 184.577 421.229 184.508C421.026 184.438 420.806 184.403 420.567 184.403C420.2 184.403 419.819 184.513 419.424 184.731C419.03 184.95 418.671 185.278 418.35 185.716C418.029 186.154 417.767 186.7 417.565 187.357C417.363 188.013 417.262 188.78 417.262 189.655V199.633C417.262 200.404 417.326 201.087 417.455 201.681C417.584 202.277 417.785 202.81 418.061 203.283C418.337 203.756 418.699 204.185 419.149 204.57C419.599 204.956 420.155 205.332 420.816 205.699L419.716 207.458ZM434.342 193.461C435.334 192.691 436.463 191.961 437.73 191.269C438.997 190.577 440.369 189.952 441.848 189.391C443.326 188.831 444.891 188.345 446.544 187.934C448.197 187.523 449.905 187.194 451.668 186.949C450.897 186.407 449.919 185.934 448.734 185.532C447.55 185.129 446.058 184.928 444.258 184.928C442.843 184.928 441.545 185.147 440.361 185.584C439.176 186.022 438.148 186.626 437.276 187.396C436.403 188.167 435.71 189.073 435.196 190.114C434.682 191.155 434.397 192.271 434.342 193.461Z" fill="black"/>
<path d="M376.091 183.12C374.75 183.12 373.639 183.028 372.758 182.844C371.876 182.661 371.141 182.433 370.554 182.162C369.966 181.891 369.48 181.597 369.094 181.282C368.708 180.967 368.331 180.674 367.964 180.402C367.597 180.131 367.193 179.903 366.752 179.719C366.311 179.535 365.751 179.444 365.072 179.444V177.343H381.049C382.426 177.343 383.601 177.544 384.574 177.947C385.547 178.35 386.342 178.932 386.957 179.693C387.572 180.454 388.027 181.387 388.321 182.489C388.614 183.592 388.761 184.853 388.761 186.271C388.761 191.155 387.393 195.068 384.657 198.009L388.21 199.243C388.558 199.366 388.867 199.467 389.133 199.545C389.399 199.624 389.643 199.663 389.863 199.663C390.487 199.663 390.919 199.418 391.158 198.928C391.396 198.438 391.516 197.72 391.516 196.775V182.07C391.516 181.212 391.599 180.486 391.764 179.89C391.929 179.295 392.205 178.81 392.59 178.433C392.976 178.057 393.485 177.781 394.119 177.606C394.753 177.431 395.538 177.343 396.474 177.343H404.738C405.822 177.343 406.777 177.492 407.602 177.789C408.429 178.087 409.118 178.511 409.668 179.063C410.219 179.615 410.637 180.28 410.922 181.058C411.206 181.837 411.349 182.7 411.349 183.645V202.027H406.39V183.645C406.39 182.14 406.041 181.063 405.343 180.415C404.645 179.768 403.525 179.444 401.983 179.444H396.474C395.904 179.444 395.441 179.488 395.082 179.575C394.724 179.663 394.444 179.811 394.243 180.022C394.04 180.232 393.902 180.504 393.83 180.836C393.756 181.168 393.72 181.58 393.72 182.07V196.775C393.72 197.738 393.66 198.552 393.541 199.217C393.421 199.882 393.238 200.425 392.99 200.845C392.742 201.265 392.425 201.567 392.039 201.751C391.654 201.935 391.204 202.027 390.689 202.027C390.249 202.027 389.757 201.966 389.216 201.842C388.674 201.72 388.063 201.545 387.384 201.317L378.405 198.219C380.167 196.538 381.507 194.735 382.426 192.81C383.344 190.884 383.804 188.704 383.804 186.271C383.804 184.03 383.354 182.332 382.454 181.177C381.554 180.021 380.167 179.443 378.295 179.443H372.4C372.748 179.864 373.203 180.231 373.763 180.546C374.323 180.861 375.099 181.018 376.091 181.018V183.12Z" fill="black"/>
<path d="M314.028 200.714C314.945 199.839 315.854 199.086 316.755 198.455C317.655 197.825 318.564 197.309 319.482 196.906C320.4 196.504 321.342 196.206 322.305 196.013C323.27 195.821 324.275 195.725 325.322 195.725C326.864 195.725 328.352 195.944 329.784 196.381C331.216 196.819 332.643 197.3 334.067 197.825C335.49 198.35 336.931 198.832 338.391 199.27C339.851 199.708 341.37 199.926 342.95 199.926C343.904 199.926 344.703 199.852 345.346 199.703C345.989 199.554 346.498 199.3 346.874 198.942C347.251 198.583 347.517 198.101 347.673 197.497C347.829 196.893 347.907 196.128 347.907 195.199V194.753C346.31 194.596 344.795 194.421 343.363 194.228C341.93 194.036 340.672 193.756 339.589 193.387C338.506 193.02 337.647 192.525 337.014 191.904C336.38 191.283 336.063 190.456 336.063 189.422C336.063 188.809 336.169 188.271 336.38 187.807C336.591 187.343 336.876 186.958 337.234 186.651C337.592 186.345 338.005 186.117 338.474 185.969C338.942 185.82 339.424 185.745 339.919 185.745C340.691 185.745 341.43 185.889 342.137 186.178C342.843 186.467 343.435 186.892 343.913 187.452L342.398 188.896C341.957 188.476 341.54 188.197 341.145 188.056C340.75 187.916 340.388 187.845 340.057 187.845C339.597 187.845 339.23 187.986 338.955 188.266C338.679 188.546 338.542 188.931 338.542 189.421C338.542 189.982 338.785 190.442 339.272 190.8C339.758 191.158 340.424 191.452 341.269 191.68C342.114 191.908 343.106 192.091 344.244 192.231C345.383 192.372 346.604 192.511 347.908 192.652V181.545C347.908 180.179 348.289 179.138 349.051 178.42C349.813 177.702 350.901 177.343 352.316 177.343H355.07C355.749 177.343 356.392 177.474 356.998 177.737C357.604 177.999 358.132 178.393 358.582 178.918C359.031 179.443 359.385 180.1 359.642 180.888C359.899 181.676 360.028 182.594 360.028 183.645V194.753C361.093 195.103 362.103 195.519 363.058 196C364.012 196.482 364.885 197.05 365.675 197.707C366.464 198.363 367.149 199.116 367.727 199.965C368.305 200.815 368.75 201.79 369.063 202.893L366.776 203.471C366.629 203.016 366.409 202.661 366.115 202.407C365.821 202.154 365.444 202.027 364.985 202.027C364.692 202.027 364.315 202.066 363.856 202.145C363.396 202.223 362.901 202.359 362.369 202.552L361.625 200.582C362.176 200.39 362.717 200.228 363.25 200.096C363.782 199.965 364.269 199.873 364.71 199.821C364.085 199.173 363.378 198.613 362.589 198.14C361.799 197.668 360.945 197.257 360.027 196.906V202.027H355.069V195.619C354.242 195.479 353.416 195.356 352.59 195.252C351.763 195.147 350.937 195.05 350.111 194.963V195.199C350.111 196.582 349.96 197.742 349.657 198.678C349.354 199.615 348.84 200.372 348.114 200.95C347.389 201.528 346.425 201.939 345.222 202.184C344.019 202.429 342.527 202.552 340.746 202.552C339.552 202.552 338.446 202.473 337.427 202.315C336.408 202.158 335.434 201.966 334.507 201.738C333.579 201.51 332.675 201.256 331.794 200.976C330.912 200.696 330.017 200.442 329.108 200.215C328.199 199.988 327.253 199.795 326.271 199.637C325.288 199.48 324.237 199.401 323.116 199.401C321.445 199.401 319.949 199.642 318.626 200.123C317.304 200.605 316.23 201.239 315.404 202.027L314.028 200.714ZM350.112 192.888C350.938 192.976 351.759 193.073 352.577 193.177C353.394 193.282 354.225 193.405 355.07 193.545V183.645C355.07 182.105 354.836 181.019 354.368 180.389C353.899 179.758 353.215 179.443 352.316 179.443C350.846 179.443 350.112 180.144 350.112 181.544V192.888Z" fill="black"/>
<path d="M374.897 242.948C375.815 242.073 376.724 241.32 377.625 240.69C378.524 240.059 379.434 239.543 380.352 239.141C381.27 238.738 382.211 238.441 383.175 238.248C384.139 238.056 385.144 237.959 386.191 237.959C387.734 237.959 389.222 238.178 390.654 238.616C392.086 239.054 393.513 239.535 394.937 240.06C396.36 240.585 397.801 241.067 399.261 241.504C400.721 241.943 402.24 242.161 403.82 242.161C404.774 242.161 405.573 242.087 406.216 241.937C406.859 241.789 407.368 241.535 407.744 241.176C408.121 240.817 408.387 240.336 408.543 239.732C408.699 239.128 408.777 238.362 408.777 237.434V236.988C407.18 236.83 405.664 236.656 404.233 236.463C402.8 236.27 401.542 235.99 400.459 235.622C399.375 235.255 398.517 234.76 397.884 234.138C397.25 233.517 396.933 232.69 396.933 231.657C396.933 231.044 397.038 230.505 397.25 230.041C397.461 229.578 397.746 229.193 398.104 228.886C398.462 228.58 398.875 228.352 399.343 228.203C399.812 228.055 400.294 227.98 400.789 227.98C401.561 227.98 402.3 228.124 403.006 228.413C403.713 228.702 404.305 229.126 404.783 229.686L403.268 231.131C402.827 230.711 402.41 230.431 402.015 230.29C401.62 230.151 401.258 230.08 400.927 230.08C400.467 230.08 400.1 230.22 399.825 230.5C399.549 230.78 399.412 231.166 399.412 231.656C399.412 232.217 399.655 232.676 400.142 233.034C400.628 233.393 401.294 233.687 402.139 233.914C402.984 234.142 403.975 234.326 405.114 234.466C406.252 234.606 407.474 234.746 408.778 234.886V223.779C408.778 222.414 409.159 221.372 409.921 220.654C410.683 219.936 411.771 219.578 413.185 219.578H415.94C416.619 219.578 417.262 219.709 417.868 219.971C418.474 220.233 419.002 220.628 419.452 221.153C419.901 221.678 420.255 222.334 420.512 223.122C420.769 223.91 420.898 224.829 420.898 225.88V236.987C421.963 237.338 422.973 237.753 423.928 238.235C424.882 238.717 425.755 239.285 426.545 239.941C427.334 240.598 428.018 241.351 428.597 242.2C429.175 243.049 429.62 244.025 429.933 245.128L427.646 245.706C427.499 245.25 427.279 244.895 426.985 244.642C426.691 244.388 426.314 244.261 425.855 244.261C425.562 244.261 425.185 244.301 424.726 244.379C424.266 244.458 423.771 244.593 423.239 244.786L422.495 242.817C423.045 242.624 423.587 242.462 424.12 242.331C424.652 242.2 425.139 242.108 425.58 242.056C424.955 241.408 424.248 240.847 423.458 240.375C422.669 239.903 421.815 239.491 420.897 239.141V244.261H415.939V237.854C415.112 237.714 414.286 237.591 413.46 237.486C412.633 237.381 411.807 237.285 410.981 237.197V237.433C410.981 238.817 410.83 239.976 410.527 240.913C410.224 241.849 409.71 242.607 408.984 243.184C408.258 243.762 407.295 244.174 406.092 244.419C404.889 244.664 403.397 244.786 401.616 244.786C400.422 244.786 399.315 244.707 398.296 244.55C397.278 244.393 396.304 244.2 395.377 243.972C394.449 243.745 393.545 243.491 392.664 243.211C391.782 242.931 390.887 242.677 389.978 242.45C389.068 242.222 388.123 242.029 387.14 241.872C386.158 241.715 385.106 241.636 383.986 241.636C382.315 241.636 380.819 241.876 379.496 242.358C378.174 242.84 377.1 243.474 376.273 244.262L374.897 242.948ZM410.982 235.123C411.808 235.211 412.629 235.307 413.447 235.412C414.264 235.517 415.095 235.64 415.94 235.78V225.88C415.94 224.339 415.706 223.254 415.237 222.623C414.769 221.993 414.085 221.678 413.185 221.678C411.716 221.678 410.982 222.378 410.982 223.779V235.123Z" fill="black"/>
<ellipse cx="155.295" cy="341.321" rx="84.3002" ry="13.4031" fill="#E0E6EA"/>
<path d="M13.7196 251.924C31.1384 264.914 37.7171 242.56 44.1133 234.146C45.5079 232.312 47.6489 231.329 49.8187 230.55L63.3798 225.682L55.7189 194.913L42.2135 199.225C34.9315 200.393 -5.48924 237.598 13.7196 251.924Z" fill="#7288EA"/>
<path d="M303.914 197.397C297.156 176.82 278.868 191.355 268.772 194.596C266.567 195.303 264.241 194.885 262.008 194.282L248.104 190.527L236.61 220.092L250.157 224.274C256.793 227.475 311.37 220.093 303.914 197.397Z" fill="#7288EA"/>
<path d="M248.603 127.715C248.194 111.439 239.558 103.302 222.696 103.302H77.9331C61.1526 103.302 52.5577 111.439 52.1484 127.715V264.305C52.5577 280.662 61.1526 288.841 77.9331 288.841H222.696C239.558 288.841 248.194 280.662 248.603 264.305V127.715Z" fill="#779BEB"/>
<path d="M96.111 147.361C91.2815 152.162 88.8667 157.899 88.8667 164.572C88.8667 171.326 91.2815 177.063 96.111 181.783C100.859 186.584 106.629 188.985 113.424 188.985C120.218 188.985 125.988 186.584 130.736 181.783C135.566 177.063 137.98 171.326 137.98 164.572C137.98 157.899 135.566 152.162 130.736 147.361C125.988 142.56 120.218 140.159 113.424 140.159C106.629 140.159 100.859 142.56 96.111 147.361Z" fill="white"/>
<path d="M125.594 171.968C127.636 169.937 128.657 167.472 128.657 164.572C128.657 161.729 127.636 159.293 125.594 157.263C123.551 155.175 121.071 154.13 118.154 154.13C115.295 154.13 112.844 155.175 110.802 157.263C108.701 159.293 107.651 161.729 107.651 164.572C107.651 167.472 108.701 169.937 110.802 171.968C112.844 173.998 115.295 175.013 118.154 175.013C121.071 175.013 123.551 173.998 125.594 171.968Z" fill="#3D465D"/>
<path d="M169.782 147.361C164.952 152.162 162.537 157.899 162.537 164.572C162.537 171.326 164.952 177.063 169.782 181.783C174.529 186.584 180.3 188.985 187.094 188.985C193.888 188.985 199.659 186.584 204.407 181.783C209.236 177.063 211.651 171.326 211.651 164.572C211.651 157.899 209.236 152.162 204.407 147.361C199.659 142.56 193.888 140.159 187.094 140.159C180.3 140.159 174.529 142.56 169.782 147.361Z" fill="white"/>
<path d="M201.29 171.896C203.313 169.886 204.324 167.444 204.324 164.572C204.324 161.757 203.313 159.345 201.29 157.334C199.268 155.266 196.812 154.232 193.923 154.232C191.092 154.232 188.665 155.266 186.642 157.334C184.562 159.345 183.522 161.757 183.522 164.572C183.522 167.444 184.562 169.886 186.642 171.896C188.665 173.907 191.092 174.912 193.923 174.912C196.812 174.912 199.268 173.907 201.29 171.896Z" fill="#3D465D"/>
<path d="M170.513 214.679V214.557C171.495 213.825 172.436 213.093 173.337 212.36C174.319 211.465 174.851 210.366 174.933 209.064C175.015 207.681 174.605 206.501 173.705 205.525C172.805 204.467 171.699 203.897 170.39 203.816C168.998 203.734 167.811 204.141 166.829 205.036C166.174 205.606 165.478 206.176 164.742 206.745H164.619C160.69 209.675 155.942 211.14 150.376 211.14C144.646 211.14 139.776 209.675 135.765 206.745C135.273 206.338 134.823 205.931 134.414 205.525C133.514 204.467 132.408 203.897 131.099 203.816C129.707 203.734 128.52 204.141 127.538 205.036C126.474 205.931 125.901 207.071 125.819 208.454C125.737 209.756 126.146 210.936 127.047 211.994C127.784 212.808 128.684 213.621 129.748 214.435C129.83 214.435 129.871 214.476 129.871 214.557C135.519 218.789 142.354 220.905 150.376 220.905C158.234 220.905 164.946 218.83 170.513 214.679Z" fill="#3D465D"/>
<path d="M222.696 103.301C239.558 103.301 248.194 111.439 248.603 127.714V119.17C248.603 102.081 239.967 93.5361 222.696 93.5361H77.9331C60.7433 93.5361 52.1484 102.081 52.1484 119.17V127.714C52.5577 111.439 61.1526 103.301 77.9331 103.301H222.696Z" fill="url(#paint0_linear_590_510)"/>
<ellipse cx="13.0932" cy="12.8169" rx="13.0932" ry="12.8169" transform="matrix(0.998811 -0.0487474 0.049296 0.998784 80.2322 192.661)" fill="#93C0F0"/>
<ellipse cx="12.2688" cy="12.8169" rx="12.2688" ry="12.8169" transform="matrix(0.998811 -0.0487474 0.049296 0.998784 185.831 193.857)" fill="#93C0F0"/>
<path d="M201.397 103.426C194.191 116.848 181.523 121.341 176.09 121.909L181.38 103.426H201.397Z" fill="#668CDF"/>
<path d="M168.93 340.72L163.811 301.786L139.288 303.644V341.443H92.1054C72.8343 336.264 87.792 327.312 97.6797 323.483V303.644C63.1191 300.971 52.9253 279.754 52.1484 267.705C120.696 301.318 211.68 281.71 248.603 267.705C240.383 292.136 217.965 297.807 207.783 297.589C207.783 297.589 206.34 322.483 217.156 326.071C231.185 334.444 225.029 339.325 220.197 340.72H168.93Z" fill="#4D63C8"/>
<path d="M152.853 108.509C183.221 62.6987 202.657 103.149 175.843 126.021C140.624 141.003 124.97 119.778 121.546 107.293C131.819 68.3795 152.853 89.2956 152.853 108.509Z" fill="#779BEB"/>
<rect width="8.76175" height="99.9203" rx="4.38088" transform="matrix(0.843993 0.536355 -0.539393 0.842054 322.082 143.804)" fill="black"/>
<path d="M30.509 53.7822L34.0576 59.5785C34.5439 60.3741 35.708 61.0989 36.6418 61.1625L42.2032 61.6129C45.7636 61.8936 46.788 64.3663 44.4946 67.1052L40.5862 71.7464C39.9339 72.524 39.6412 73.9654 39.9599 74.9318L41.6309 80.1182C42.9459 84.2132 40.8701 86.0265 36.9985 84.1578L31.5901 81.547C30.605 81.0695 29.0802 81.2128 28.2022 81.8367L23.3176 85.3142C19.8207 87.8001 17.4622 86.3699 18.0653 82.1147L18.8404 76.7289C18.9851 75.7222 18.4707 74.349 17.693 73.6967L13.0271 69.7828C10.3033 67.4798 10.8931 64.8706 14.3477 63.9853L19.7421 62.6071C20.6521 62.3668 21.6797 61.4773 22.0156 60.6038L24.5306 54.2783C25.9075 50.8693 28.5928 50.645 30.509 53.7822Z" fill="#F9B700"/>
<path d="M88.4218 52.9977L91.4506 57.9449C91.8656 58.624 92.8592 59.2426 93.6562 59.2968L98.4029 59.6813C101.442 59.9209 102.316 62.0313 100.359 64.369L97.0228 68.3303C96.4661 68.994 96.2162 70.2243 96.4883 71.0491L97.9144 75.4757C99.0368 78.9708 97.2651 80.5184 93.9607 78.9235L89.3446 76.6952C88.5038 76.2877 87.2023 76.41 86.453 76.9425L82.2839 79.9105C79.2993 82.0323 77.2863 80.8115 77.801 77.1797L78.4626 72.5829C78.5861 71.7237 78.147 70.5517 77.4833 69.9949L73.5009 66.6544C71.1761 64.6887 71.6795 62.4617 74.628 61.7062L79.2322 60.5298C80.0089 60.3247 80.886 59.5656 81.1727 58.82L83.3192 53.4212C84.4944 50.5116 86.7863 50.3201 88.4218 52.9977Z" fill="#FECA38"/>
<path d="M165.957 47.6372L167.792 50.635C168.044 51.0465 168.646 51.4214 169.129 51.4543L172.005 51.6872C173.847 51.8324 174.376 53.1113 173.19 54.5279L171.169 56.9283C170.832 57.3305 170.68 58.076 170.845 58.5758L171.709 61.2582C172.389 63.3761 171.316 64.3139 169.313 63.3475L166.516 61.9972C166.007 61.7502 165.218 61.8243 164.764 62.147L162.238 63.9456C160.429 65.2313 159.209 64.4916 159.521 62.2908L159.922 59.5053C159.997 58.9846 159.731 58.2744 159.329 57.937L156.915 55.9127C155.507 54.7216 155.812 53.3721 157.598 52.9143L160.388 52.2014C160.859 52.0772 161.39 51.6171 161.564 51.1653L162.865 47.8938C163.577 46.1307 164.966 46.0146 165.957 47.6372Z" fill="#FECA38"/>
<path d="M32.1047 114.28L34.5169 118.22C34.8475 118.761 35.6388 119.254 36.2736 119.297L40.0539 119.603C42.4742 119.794 43.1705 121.475 41.6116 123.337L38.9548 126.491C38.5114 127.02 38.3124 128 38.5291 128.657L39.6649 132.182C40.5588 134.966 39.1478 136.198 36.516 134.928L32.8397 133.153C32.17 132.829 31.1335 132.926 30.5367 133.35L27.2163 135.714C24.8393 137.404 23.2361 136.432 23.6461 133.539L24.173 129.878C24.2713 129.194 23.9216 128.261 23.393 127.817L20.2213 125.157C18.3698 123.591 18.7707 121.818 21.119 121.216L24.7859 120.279C25.4045 120.116 26.103 119.511 26.3313 118.917L28.0409 114.617C28.9768 112.3 30.8022 112.148 32.1047 114.28Z" fill="#FFE980"/>
<rect x="83.7668" y="156.13" width="59.3131" height="30.8547" rx="6" stroke="black" stroke-width="4"/>
<rect x="158.346" y="156.13" width="59.3131" height="30.8547" rx="6" stroke="black" stroke-width="4"/>
<rect x="247.496" y="0.512207" width="133.063" height="45.4932" rx="22.7466" fill="#FFF2B7" stroke="#F9B700"/>
<path d="M286.538 32.7503C285.26 32.7503 284.09 32.5163 283.028 32.0483C281.966 31.5623 281.066 30.9053 280.328 30.0773C279.59 29.2493 279.059 28.3223 278.735 27.2963L281.03 26.3513C281.516 27.6473 282.236 28.6463 283.19 29.3483C284.162 30.0323 285.296 30.3743 286.592 30.3743C287.384 30.3743 288.077 30.2483 288.671 29.9963C289.265 29.7443 289.724 29.3933 290.048 28.9433C290.39 28.4753 290.561 27.9353 290.561 27.3233C290.561 26.4773 290.318 25.8113 289.832 25.3253C289.364 24.8213 288.671 24.4433 287.753 24.1913L284.054 23.0573C282.596 22.6073 281.48 21.8963 280.706 20.9243C279.932 19.9523 279.545 18.8363 279.545 17.5763C279.545 16.4783 279.806 15.5153 280.328 14.6873C280.868 13.8413 281.606 13.1843 282.542 12.7163C283.496 12.2303 284.576 11.9873 285.782 11.9873C286.988 11.9873 288.077 12.2033 289.049 12.6353C290.039 13.0673 290.876 13.6523 291.56 14.3903C292.244 15.1103 292.748 15.9383 293.072 16.8743L290.804 17.8193C290.372 16.6853 289.724 15.8303 288.86 15.2543C287.996 14.6603 286.979 14.3633 285.809 14.3633C285.089 14.3633 284.45 14.4893 283.892 14.7413C283.352 14.9753 282.929 15.3263 282.623 15.7943C282.335 16.2443 282.191 16.7843 282.191 17.4143C282.191 18.1523 282.425 18.8093 282.893 19.3853C283.361 19.9613 284.072 20.4023 285.026 20.7083L288.401 21.7073C289.985 22.1933 291.182 22.8863 291.992 23.7863C292.802 24.6863 293.207 25.8023 293.207 27.1343C293.207 28.2323 292.919 29.2043 292.343 30.0503C291.785 30.8963 291.002 31.5623 289.994 32.0483C289.004 32.5163 287.852 32.7503 286.538 32.7503ZM296.785 32.4263V17.8733H299.296V32.4263H296.785ZM296.785 15.5513V12.3113H299.296V15.5513H296.785ZM303.192 32.4263V17.8733H305.649V20.7083L305.244 20.4653C305.604 19.5473 306.18 18.8363 306.972 18.3323C307.782 17.8103 308.727 17.5493 309.807 17.5493C310.851 17.5493 311.778 17.7833 312.588 18.2513C313.416 18.7193 314.064 19.3673 314.532 20.1953C315.018 21.0233 315.261 21.9593 315.261 23.0033V32.4263H312.723V23.8133C312.723 23.0033 312.579 22.3193 312.291 21.7613C312.003 21.2033 311.589 20.7713 311.049 20.4653C310.527 20.1413 309.924 19.9793 309.24 19.9793C308.556 19.9793 307.944 20.1413 307.404 20.4653C306.882 20.7713 306.468 21.2123 306.162 21.7883C305.856 22.3463 305.703 23.0213 305.703 23.8133V32.4263H303.192ZM323.12 32.7503C322.166 32.7503 321.32 32.5793 320.582 32.2373C319.862 31.8773 319.295 31.3913 318.881 30.7793C318.467 30.1493 318.26 29.4293 318.26 28.6193C318.26 27.8453 318.422 27.1523 318.746 26.5403C319.088 25.9103 319.61 25.3793 320.312 24.9473C321.032 24.5153 321.932 24.2093 323.012 24.0293L328.412 23.1383V25.2443L323.579 26.0543C322.643 26.2163 321.959 26.5133 321.527 26.9453C321.113 27.3773 320.906 27.9083 320.906 28.5383C320.906 29.1323 321.14 29.6273 321.608 30.0233C322.094 30.4193 322.697 30.6173 323.417 30.6173C324.335 30.6173 325.127 30.4283 325.793 30.0503C326.477 29.6543 327.008 29.1233 327.386 28.4573C327.782 27.7913 327.98 27.0533 327.98 26.2433V22.5443C327.98 21.7523 327.683 21.1133 327.089 20.6273C326.513 20.1233 325.748 19.8713 324.794 19.8713C323.966 19.8713 323.228 20.0873 322.58 20.5193C321.95 20.9333 321.482 21.4913 321.176 22.1933L318.989 21.0593C319.259 20.3933 319.691 19.7993 320.285 19.2773C320.879 18.7373 321.572 18.3143 322.364 18.0083C323.156 17.7023 323.984 17.5493 324.848 17.5493C325.964 17.5493 326.945 17.7653 327.791 18.1973C328.637 18.6113 329.294 19.1963 329.762 19.9523C330.248 20.6903 330.491 21.5543 330.491 22.5443V32.4263H328.034V29.6723L328.493 29.8343C328.187 30.4103 327.773 30.9143 327.251 31.3463C326.729 31.7783 326.117 32.1203 325.415 32.3723C324.713 32.6243 323.948 32.7503 323.12 32.7503ZM341.296 32.7503C339.892 32.7503 338.623 32.4263 337.489 31.7783C336.355 31.1123 335.455 30.2033 334.789 29.0513C334.123 27.8993 333.79 26.5943 333.79 25.1363C333.79 23.6783 334.114 22.3823 334.762 21.2483C335.428 20.1143 336.328 19.2143 337.462 18.5483C338.596 17.8823 339.874 17.5493 341.296 17.5493C342.7 17.5493 343.969 17.8823 345.103 18.5483C346.237 19.1963 347.128 20.0873 347.776 21.2213C348.442 22.3553 348.775 23.6603 348.775 25.1363C348.775 26.6123 348.433 27.9263 347.749 29.0783C347.065 30.2123 346.156 31.1123 345.022 31.7783C343.906 32.4263 342.664 32.7503 341.296 32.7503ZM341.296 30.3203C342.196 30.3203 343.006 30.0953 343.726 29.6453C344.464 29.1953 345.04 28.5743 345.454 27.7823C345.886 26.9903 346.102 26.1083 346.102 25.1363C346.102 24.1463 345.886 23.2733 345.454 22.5173C345.04 21.7433 344.464 21.1313 343.726 20.6813C343.006 20.2133 342.196 19.9793 341.296 19.9793C340.378 19.9793 339.55 20.2133 338.812 20.6813C338.092 21.1313 337.516 21.7433 337.084 22.5173C336.652 23.2733 336.436 24.1463 336.436 25.1363C336.436 26.1083 336.652 26.9903 337.084 27.7823C337.516 28.5743 338.092 29.1953 338.812 29.6453C339.55 30.0953 340.378 30.3203 341.296 30.3203Z" fill="black"/>
<circle cx="249.086" cy="77.0027" r="6.45898" fill="#FFF2B7"/>
<circle cx="258.172" cy="56.4308" r="9.08679" fill="#FFF2B7"/>
<circle cx="241.41" cy="89.9205" r="3.4635" fill="#FFF2B7"/>
<defs>
<linearGradient id="paint0_linear_590_510" x1="149.762" y1="92.9258" x2="149.762" y2="199.122" gradientUnits="userSpaceOnUse">
<stop stop-color="#95C2F0"/>
<stop offset="1" stop-color="#6B8EE9"/>
</linearGradient>
<clipPath id="clip0_590_510">
<rect width="124.395" height="27.9355" fill="white" transform="translate(318.571 140.496)"/>
</clipPath>
</defs>
</svg>
