<svg width="1242" height="385" viewBox="0 0 1242 385" fill="none" xmlns="http://www.w3.org/2000/svg">
<g clip-path="url(#clip0_536_442)">
<path d="M0 40C0 17.9086 17.9086 0 40 0H1202C1224.09 0 1242 17.9086 1242 40V345C1242 367.091 1224.09 385 1202 385H40C17.9086 385 0 367.091 0 345V40Z" fill="#F5CF1E"/>
<path d="M219.584 379.263C233.165 389.448 238.52 372.662 243.521 365.508C244.848 363.61 246.986 362.592 249.165 361.805L259.366 358.123L253.229 333.336L242.41 336.809C236.577 337.751 204.197 367.723 219.584 379.263Z" fill="#7288EA"/>
<path d="M441.159 313.128C427.578 302.943 422.223 319.729 417.222 326.882C415.895 328.781 413.757 329.799 411.578 330.585L401.377 334.268L407.514 359.054L418.333 355.581C424.166 354.64 456.546 324.668 441.159 313.128Z" fill="#7288EA"/>
<path d="M407.744 279.202C407.416 266.091 400.498 259.536 386.99 259.536H271.024C257.582 259.536 250.696 266.091 250.369 279.202V389.237C250.696 402.414 257.582 409.002 271.024 409.002H386.99C400.498 409.002 407.416 402.414 407.744 389.237V279.202Z" fill="#779BEB"/>
<path d="M285.586 295.029C281.717 298.897 279.783 303.519 279.783 308.894C279.783 314.335 281.717 318.957 285.586 322.759C289.389 326.627 294.012 328.561 299.454 328.561C304.897 328.561 309.52 326.627 313.323 322.759C317.192 318.957 319.126 314.335 319.126 308.894C319.126 303.519 317.192 298.897 313.323 295.029C309.52 291.161 304.897 289.228 299.454 289.228C294.012 289.228 289.389 291.161 285.586 295.029Z" fill="white"/>
<path d="M307.815 317.253C310.11 314.958 311.258 312.172 311.258 308.894C311.258 305.682 310.11 302.929 307.815 300.634C305.52 298.274 302.733 297.094 299.454 297.094C296.241 297.094 293.487 298.274 291.192 300.634C288.832 302.929 287.651 305.682 287.651 308.894C287.651 312.172 288.832 314.958 291.192 317.253C293.487 319.547 296.241 320.694 299.454 320.694C302.733 320.694 305.52 319.547 307.815 317.253Z" fill="#3D465D"/>
<path d="M344.601 295.029C340.733 298.897 338.798 303.519 338.798 308.894C338.798 314.335 340.733 318.957 344.601 322.759C348.405 326.627 353.028 328.561 358.47 328.561C363.913 328.561 368.536 326.627 372.339 322.759C376.208 318.957 378.142 314.335 378.142 308.894C378.142 303.519 376.208 298.897 372.339 295.029C368.536 291.161 363.913 289.228 358.47 289.228C353.028 289.228 348.405 291.161 344.601 295.029Z" fill="white"/>
<path d="M366.831 317.253C369.126 314.958 370.273 312.172 370.273 308.894C370.273 305.682 369.126 302.929 366.831 300.634C364.536 298.274 361.749 297.094 358.47 297.094C355.257 297.094 352.503 298.274 350.208 300.634C347.847 302.929 346.667 305.682 346.667 308.894C346.667 312.172 347.847 314.958 350.208 317.253C352.503 319.547 355.257 320.694 358.47 320.694C361.749 320.694 364.536 319.547 366.831 317.253Z" fill="#3D465D"/>
<path d="M345.093 341.246V341.147C345.88 340.557 346.634 339.967 347.356 339.377C348.142 338.656 348.569 337.771 348.634 336.722C348.7 335.608 348.372 334.657 347.651 333.871C346.929 333.018 346.044 332.56 344.995 332.494C343.88 332.428 342.929 332.756 342.142 333.477C341.618 333.936 341.061 334.395 340.47 334.854H340.372C337.224 337.214 333.421 338.394 328.962 338.394C324.372 338.394 320.471 337.214 317.258 334.854C316.864 334.526 316.503 334.198 316.176 333.871C315.454 333.018 314.569 332.56 313.52 332.494C312.405 332.428 311.454 332.756 310.667 333.477C309.815 334.198 309.356 335.116 309.29 336.231C309.225 337.28 309.553 338.23 310.274 339.082C310.864 339.738 311.585 340.393 312.438 341.049C312.503 341.049 312.536 341.082 312.536 341.147C317.061 344.556 322.536 346.261 328.962 346.261C335.257 346.261 340.634 344.589 345.093 341.246Z" fill="#3D465D"/>
<path d="M386.99 259.536C400.498 259.536 407.416 266.091 407.744 279.202V272.319C407.744 258.552 400.826 251.669 386.99 251.669H271.024C257.254 251.669 250.369 258.552 250.369 272.319V279.202C250.696 266.091 257.582 259.536 271.024 259.536H386.99Z" fill="url(#paint0_linear_536_442)"/>
<path d="M369.928 259.636C364.155 270.448 354.007 274.067 349.655 274.526L353.893 259.636H369.928Z" fill="#668CDF"/>
<path d="M331.041 263.731C355.368 226.827 370.937 259.413 349.457 277.838C321.244 289.907 308.705 272.809 305.962 262.751C314.19 231.403 331.041 248.253 331.041 263.731Z" fill="#779BEB"/>
<path d="M129.433 374.569C128.49 391.518 145.428 386.664 154.154 386.858C156.469 386.909 158.503 388.124 160.365 389.501L169.087 395.947L186.309 377.094L177.418 370.018C173.4 365.686 130.502 355.364 129.433 374.569Z" fill="#FF435D"/>
<path d="M376.918 384.75C372.199 401.057 357.822 390.871 349.524 388.167C347.321 387.449 345.001 387.922 342.787 388.605L332.424 391.802L322.411 368.311L333.142 364.576C338.368 361.818 382.265 366.274 376.918 384.75Z" fill="#FF435D"/>
<path d="M332.376 318.889C332.048 305.778 325.13 299.222 311.622 299.222H195.657C182.214 299.222 175.329 305.778 175.001 318.889V428.924C175.329 442.1 182.214 448.689 195.657 448.689H311.622C325.13 448.689 332.048 442.1 332.376 428.924V318.889Z" fill="#FF435D"/>
<path d="M210.218 334.716C206.35 338.584 204.415 343.205 204.415 348.581C204.415 354.022 206.35 358.644 210.218 362.446C214.022 366.314 218.644 368.247 224.087 368.247C229.53 368.247 234.152 366.314 237.956 362.446C241.825 358.644 243.759 354.022 243.759 348.581C243.759 343.205 241.825 338.584 237.956 334.716C234.152 330.848 229.53 328.914 224.087 328.914C218.644 328.914 214.022 330.848 210.218 334.716Z" fill="white"/>
<path d="M230.51 357.112C232.273 355.416 233.154 353.358 233.154 350.936C233.154 348.563 232.273 346.528 230.51 344.833C228.747 343.089 226.606 342.217 224.087 342.217C221.619 342.217 219.503 343.089 217.74 344.833C215.927 346.528 215.02 348.563 215.02 350.936C215.02 353.358 215.927 355.416 217.74 357.112C219.503 358.807 221.619 359.655 224.087 359.655C226.606 359.655 228.747 358.807 230.51 357.112Z" fill="#3D465D"/>
<path d="M269.234 334.716C265.365 338.584 263.431 343.205 263.431 348.581C263.431 354.022 265.365 358.644 269.234 362.446C273.037 366.314 277.66 368.247 283.103 368.247C288.545 368.247 293.168 366.314 296.971 362.446C300.84 358.644 302.775 354.022 302.775 348.581C302.775 343.205 300.84 338.584 296.971 334.716C293.168 330.848 288.545 328.914 283.103 328.914C277.66 328.914 273.037 330.848 269.234 334.716Z" fill="white"/>
<path d="M290.949 354.758C292.782 353.063 293.699 351.003 293.699 348.581C293.699 346.207 292.782 344.172 290.949 342.476C289.115 340.732 286.888 339.86 284.268 339.86C281.701 339.86 279.5 340.732 277.666 342.476C275.78 344.172 274.837 346.207 274.837 348.581C274.837 351.003 275.78 353.063 277.666 354.758C279.5 356.454 281.701 357.302 284.268 357.302C286.888 357.302 289.115 356.454 290.949 354.758Z" fill="#3D465D"/>
<path d="M311.622 299.222C325.13 299.222 332.048 305.778 332.376 318.889V312.005C332.376 298.239 325.458 291.355 311.622 291.355H195.657C181.886 291.355 175.001 298.239 175.001 312.005V318.889C175.329 305.778 182.214 299.222 195.657 299.222H311.622Z" fill="#FF6A7F"/>
<ellipse cx="206.425" cy="381.357" rx="11.8682" ry="10.3249" transform="rotate(-2.80982 206.425 381.357)" fill="#FF6A7F"/>
<ellipse cx="295.632" cy="381.949" rx="11.8682" ry="10.3249" transform="rotate(-2.80982 295.632 381.949)" fill="#FF6A7F"/>
<path d="M294.561 299.322C288.788 310.135 278.64 313.754 274.288 314.212L278.525 299.322H294.561Z" fill="#DE374E"/>
<path d="M255.673 303.417C280 266.513 295.569 299.099 274.09 317.524C245.877 329.594 233.337 312.495 230.594 302.438C238.823 271.09 255.673 287.939 255.673 303.417Z" fill="#FF435D"/>
<path d="M268.538 379.527C267.469 383.516 256.912 392.947 250.555 391.244C244.198 389.54 237.114 380.271 238.183 376.282C239.251 372.293 244.98 382.442 251.337 384.146C257.694 385.849 269.607 375.538 268.538 379.527Z" fill="#3D465D"/>
<path d="M819.232 396.809C832.813 406.994 838.168 390.208 843.168 383.055C844.495 381.156 846.634 380.138 848.812 379.352L859.013 375.669L852.876 350.883L842.058 354.356C836.224 355.297 803.844 385.269 819.232 396.809Z" fill="#01C070"/>
<path d="M1051.7 352.883C1046.43 336.746 1032.41 347.415 1024.2 350.4C1022.03 351.193 1019.69 350.798 1017.46 350.191L1006.99 347.349L997.783 371.166L1008.64 374.534C1013.95 377.113 1057.67 371.167 1051.7 352.883Z" fill="#01C070"/>
<path d="M1007.39 296.749C1007.06 283.638 1000.15 277.082 986.637 277.082H870.672C857.229 277.082 850.344 283.638 850.016 296.749V406.784C850.344 419.96 857.229 426.549 870.672 426.549H986.637C1000.15 426.549 1007.06 419.96 1007.39 406.784V296.749Z" fill="#01C070"/>
<path d="M885.233 312.575C881.365 316.443 879.43 321.065 879.43 326.44C879.43 331.881 881.365 336.503 885.233 340.305C889.037 344.173 893.659 346.107 899.102 346.107C904.545 346.107 909.167 344.173 912.971 340.305C916.84 336.503 918.774 331.881 918.774 326.44C918.774 321.065 916.84 316.443 912.971 312.575C909.167 308.707 904.545 306.773 899.102 306.773C893.659 306.773 889.037 308.707 885.233 312.575Z" fill="white"/>
<path d="M905.062 334.22C906.698 332.585 907.516 330.599 907.516 328.262C907.516 325.973 906.698 324.01 905.062 322.374C903.426 320.692 901.439 319.851 899.102 319.851C896.812 319.851 894.849 320.692 893.213 322.374C891.53 324.01 890.688 325.973 890.688 328.262C890.688 330.599 891.53 332.585 893.213 334.22C894.849 335.856 896.812 336.674 899.102 336.674C901.439 336.674 903.426 335.856 905.062 334.22Z" fill="#3D465D"/>
<path d="M944.249 312.575C940.38 316.443 938.446 321.065 938.446 326.44C938.446 331.881 940.38 336.503 944.249 340.305C948.052 344.173 952.675 346.107 958.118 346.107C963.56 346.107 968.183 344.173 971.986 340.305C975.855 336.503 977.79 331.881 977.79 326.44C977.79 321.065 975.855 316.443 971.986 312.575C968.183 308.707 963.56 306.773 958.118 306.773C952.675 306.773 948.052 308.707 944.249 312.575Z" fill="white"/>
<path d="M969.49 332.34C971.11 330.721 971.92 328.754 971.92 326.44C971.92 324.173 971.11 322.229 969.49 320.609C967.87 318.943 965.902 318.11 963.588 318.11C961.32 318.11 959.376 318.943 957.756 320.609C956.089 322.229 955.256 324.173 955.256 326.44C955.256 328.754 956.089 330.721 957.756 332.34C959.376 333.96 961.32 334.77 963.588 334.77C965.902 334.77 967.87 333.96 969.49 332.34Z" fill="#3D465D"/>
<path d="M944.741 358.792V358.693C945.528 358.103 946.282 357.513 947.003 356.923C947.79 356.202 948.216 355.317 948.282 354.268C948.347 353.154 948.019 352.203 947.298 351.417C946.577 350.564 945.692 350.105 944.642 350.04C943.528 349.974 942.577 350.302 941.79 351.023C941.265 351.482 940.708 351.941 940.118 352.4H940.019C936.872 354.76 933.069 355.94 928.61 355.94C924.02 355.94 920.118 354.76 916.905 352.4C916.512 352.072 916.151 351.744 915.823 351.417C915.102 350.564 914.217 350.105 913.167 350.04C912.053 349.974 911.102 350.302 910.315 351.023C909.462 351.744 909.003 352.662 908.938 353.777C908.872 354.825 909.2 355.776 909.921 356.628C910.512 357.284 911.233 357.939 912.085 358.595C912.151 358.595 912.184 358.628 912.184 358.693C916.708 362.102 922.184 363.807 928.61 363.807C934.905 363.807 940.282 362.135 944.741 358.792Z" fill="#3D465D"/>
<path d="M986.637 277.082C1000.15 277.082 1007.06 283.638 1007.39 296.749V289.865C1007.39 276.099 1000.47 269.215 986.637 269.215H870.672C856.901 269.215 850.016 276.099 850.016 289.865V296.749C850.344 283.638 857.229 277.082 870.672 277.082H986.637Z" fill="#25D28A"/>
<ellipse cx="879.43" cy="360.927" rx="11.8682" ry="10.3249" transform="rotate(-2.80982 879.43 360.927)" fill="#25D28A"/>
<ellipse cx="970.787" cy="361.851" rx="11.8682" ry="10.3249" transform="rotate(-2.80982 970.787 361.851)" fill="#25D28A"/>
<path d="M969.576 277.182C963.803 287.994 953.655 291.614 949.302 292.072L953.54 277.182H969.576Z" fill="#1DA16A"/>
<path d="M930.688 281.277C955.015 244.373 970.584 276.959 949.105 295.384C920.891 307.453 908.352 290.355 905.609 280.298C913.838 248.949 930.688 265.799 930.688 281.277Z" fill="#01C070"/>
<rect x="1054.14" y="306.622" width="7.0234" height="80.4409" rx="3.5117" transform="rotate(19.9845 1054.14 306.622)" fill="black"/>
<path d="M819.731 303.582C828.404 299.245 828.765 284.556 827.862 277.753L827.055 274.021L821.963 276.956C822.845 281.758 823.11 292.709 817.11 298.096C793.793 299.033 809.452 308.504 792.025 308.504C786.992 313.477 819.731 322.289 819.731 303.582Z" fill="#FFB600"/>
<path d="M850.004 292.06L837.729 271.759L876.107 247.216L889.293 270.13L872.562 277.322C868.694 278.984 865.026 281.078 861.628 283.562L850.004 292.06Z" fill="black"/>
<rect x="812.955" y="268.959" width="88.2021" height="14.3222" rx="7.16111" transform="rotate(-28.5568 812.955 268.959)" fill="black"/>
<path d="M1081.66 325.476C1081.33 312.365 1074.41 305.809 1060.9 305.809H944.937C931.494 305.809 924.609 312.365 924.281 325.476V435.511C924.609 448.687 931.494 455.276 944.937 455.276H1060.9C1074.41 455.276 1081.33 448.687 1081.66 435.511V325.476Z" fill="#FF86C9"/>
<path d="M958.953 351.643C960.002 350.594 961.117 349.709 962.297 348.988C956.658 352.266 951.937 353.807 948.133 353.61C945.051 353.61 944.396 354.593 946.166 356.56L953.838 364.132C953.838 359.215 955.543 355.052 958.953 351.643ZM1043.64 348.988C1044.82 349.709 1045.94 350.594 1046.98 351.643C1050.39 355.052 1052.1 359.215 1052.1 364.132L1059.77 356.56C1061.54 354.593 1060.89 353.61 1057.8 353.61C1054 353.807 1049.28 352.266 1043.64 348.988Z" fill="#3D465D"/>
<path d="M987.379 350.267C983.576 346.399 978.953 344.465 973.51 344.465C968.068 344.465 963.445 346.399 959.642 350.267C955.773 354.069 953.838 358.69 953.838 364.132H993.182C993.182 358.69 991.248 354.069 987.379 350.267Z" fill="white"/>
<path d="M981.871 355.773C979.576 353.479 976.789 352.332 973.51 352.332C970.297 352.332 967.543 353.479 965.248 355.773C962.887 358.068 961.707 360.854 961.707 364.132H985.313C985.313 360.854 984.166 358.068 981.871 355.773Z" fill="#3D465D"/>
<path d="M1046.39 350.267C1042.59 346.399 1037.97 344.465 1032.53 344.465C1027.08 344.465 1022.46 346.399 1018.66 350.267C1014.79 354.069 1012.85 358.69 1012.85 364.132H1052.2C1052.2 358.69 1050.26 354.069 1046.39 350.267Z" fill="white"/>
<path d="M1040.89 355.773C1038.59 353.479 1035.8 352.332 1032.53 352.332C1029.31 352.332 1026.56 353.479 1024.26 355.773C1021.9 358.068 1020.72 360.854 1020.72 364.132H1044.33C1044.33 360.854 1043.18 358.068 1040.89 355.773Z" fill="#3D465D"/>
<path d="M955.805 338.565C955.805 339.089 956.002 339.548 956.396 339.942C956.789 340.335 957.248 340.532 957.773 340.532H983.346C983.871 340.532 984.33 340.335 984.723 339.942C985.117 339.548 985.313 339.089 985.313 338.565V332.665C985.313 332.14 985.117 331.682 984.723 331.288C984.33 330.895 983.871 330.698 983.346 330.698H975.772C975.576 330.698 975.412 330.731 975.281 330.797L957.281 335.32C956.822 335.385 956.461 335.615 956.199 336.008C955.937 336.336 955.805 336.729 955.805 337.188V338.565Z" fill="#3D465D"/>
<path d="M1021.31 339.942C1021.71 340.335 1022.17 340.532 1022.69 340.532H1048.26C1048.79 340.532 1049.25 340.335 1049.64 339.942C1050.03 339.548 1050.23 339.089 1050.23 338.565V337.188C1050.23 336.729 1050.1 336.336 1049.84 336.008C1049.57 335.615 1049.21 335.385 1048.76 335.32L1030.76 330.797C1030.62 330.731 1030.46 330.698 1030.26 330.698H1022.69C1022.17 330.698 1021.71 330.895 1021.31 331.288C1020.92 331.682 1020.72 332.14 1020.72 332.665V338.565C1020.72 339.089 1020.92 339.548 1021.31 339.942Z" fill="#3D465D"/>
<path d="M1019.05 383.7V383.601C1019.84 383.011 1020.59 382.421 1021.31 381.831C1022.1 381.11 1022.53 380.225 1022.59 379.176C1022.66 378.062 1022.33 377.111 1021.61 376.325C1020.89 375.473 1020 375.014 1018.95 374.948C1017.84 374.883 1016.89 375.21 1016.1 375.931C1015.58 376.39 1015.02 376.849 1014.43 377.308H1014.33C1011.18 379.668 1007.38 380.848 1002.92 380.848C998.329 380.848 994.428 379.668 991.215 377.308C990.821 376.98 990.461 376.653 990.133 376.325C989.412 375.473 988.526 375.014 987.477 374.948C986.362 374.883 985.412 375.21 984.625 375.931C983.772 376.653 983.313 377.57 983.248 378.685C983.182 379.734 983.51 380.684 984.231 381.536C984.821 382.192 985.543 382.848 986.395 383.503C986.461 383.503 986.494 383.536 986.494 383.601C991.018 387.01 996.493 388.715 1002.92 388.715C1009.21 388.715 1014.59 387.043 1019.05 383.7Z" fill="#3D465D"/>
<path d="M1060.9 305.809C1074.41 305.809 1081.33 312.365 1081.66 325.476V318.592C1081.66 304.826 1074.74 297.942 1060.9 297.942H944.937C931.166 297.942 924.281 304.826 924.281 318.592V325.476C924.609 312.365 931.494 305.809 944.937 305.809H1060.9Z" fill="#FFB0DC"/>
<path d="M1043.84 305.909C1038.07 316.721 1027.92 320.341 1023.57 320.799L1027.81 305.909H1043.84Z" fill="#FB60B6"/>
<path d="M1004.95 310.004C1029.28 273.1 1044.85 305.686 1023.37 324.111C995.157 336.181 982.617 319.082 979.874 309.025C988.103 277.676 1004.95 294.526 1004.95 310.004Z" fill="#FF86C9"/>
</g>
<defs>
<linearGradient id="paint0_linear_536_442" x1="328.564" y1="251.177" x2="328.564" y2="336.727" gradientUnits="userSpaceOnUse">
<stop stop-color="#95C2F0"/>
<stop offset="1" stop-color="#6B8EE9"/>
</linearGradient>
<clipPath id="clip0_536_442">
<rect width="1242" height="385" fill="white"/>
</clipPath>
</defs>
</svg>
