<svg width="169" height="32" viewBox="0 0 169 32" fill="none" xmlns="http://www.w3.org/2000/svg">
<rect width="31.845" height="31.7886" fill="#64B900" fill-opacity="0.12"/>
<path d="M10.838 13.8318C12.7295 12.1804 14.785 10.7215 16.9731 9.47734C18.3749 8.71897 19.7163 7.85628 20.9855 6.8968C21.6164 6.38713 22.1801 5.80134 22.6631 5.15325C22.8909 4.84098 23.6288 3.98888 23.5791 3.5705C24.2016 8.69649 24.1518 14.633 20.3321 18.6797C16.5124 22.7263 10.4544 23.3857 5.49121 25.381C5.45394 25.3898 5.41518 25.3903 5.37773 25.3825C5.34029 25.3747 5.30513 25.3587 5.27482 25.3357C5.24452 25.3127 5.21984 25.2833 5.2026 25.2496C5.18535 25.2159 5.17598 25.1789 5.17517 25.1411C5.21598 20.7263 7.59663 16.76 10.838 13.8318Z" fill="#64B900"/>
<path d="M14.6705 12.2221C14.7195 12.1727 14.8192 12.2364 14.7622 12.3104C13.5658 13.9132 12.3571 15.5121 11.248 17.1748C10.4274 18.4064 9.74828 19.7581 8.90716 21.0022C9.65161 20.3819 10.4296 19.81 11.2242 19.2541C11.6096 19.0081 11.9738 18.731 12.313 18.4257C12.6277 18.0892 12.9203 17.7333 13.189 17.3602C13.596 16.8177 13.9904 16.2631 14.4015 15.7246C16.005 13.5956 17.6874 11.5265 19.3741 9.46141C19.4149 9.42017 19.498 9.47601 19.4532 9.53764C17.4238 12.36 15.3533 15.2073 13.1451 17.8978C13.6938 17.4999 14.23 17.0899 14.7372 16.6599C17.7733 14.0218 20.3172 10.8794 22.2528 7.37621C22.2936 7.33497 22.3559 7.37075 22.3153 7.4364C20.7323 10.7769 18.4913 13.7752 15.7232 16.2561C14.2396 17.6146 12.597 18.7555 11.0169 19.9566C15.6966 18.4255 19.6371 15.2342 22.0718 11.0036C22.0794 10.996 22.0897 10.9916 22.1006 10.9915C22.1114 10.9913 22.1218 10.9954 22.1296 11.0029C22.1373 11.0103 22.1417 11.0205 22.1418 11.0312C22.1419 11.0418 22.1377 11.0522 22.1301 11.0598C20.9397 13.3377 19.2852 15.3498 17.2707 16.9698C15.2562 18.5897 12.9252 19.7825 10.4241 20.4732C10.4015 20.4807 10.3774 20.4824 10.354 20.4782C9.66871 21.0074 9.01082 21.5703 8.38287 22.1647C12.2091 21.3922 15.8386 19.8608 19.0507 17.6637C19.0752 17.639 19.0924 17.7038 19.0882 17.6998C15.848 20.17 12.0462 21.822 8.01516 22.5114C7.49385 23.0332 7.01022 23.5903 6.56783 24.1786C6.43759 24.3512 6.13906 24.2088 6.26079 24.0118C6.81421 23.1194 7.4903 22.3065 8.26971 21.5966C8.92468 19.9075 10.1292 18.2965 11.1534 16.8099C12.2221 15.2061 13.397 13.6735 14.6705 12.2221Z" fill="#3D8709"/>
<path d="M0 1.17477C0 0.914519 0.104846 0.664924 0.291474 0.480895C0.478102 0.296867 0.731224 0.193481 0.995155 0.193481L6.96609 0.193481C7.23002 0.193481 7.48314 0.296867 7.66977 0.480895C7.8564 0.664924 7.96124 0.914519 7.96124 1.17477C7.96124 1.43503 7.8564 1.68463 7.66977 1.86865C7.48314 2.05268 7.23002 2.15607 6.96609 2.15607H4.63899C3.17616 2.15607 1.99031 3.34192 1.99031 4.80475V7.06253C1.99031 7.32279 1.88546 7.57238 1.69884 7.75641C1.51221 7.94044 1.25909 8.04382 0.995155 8.04382C0.731224 8.04382 0.478102 7.94044 0.291474 7.75641C0.104846 7.57238 0 7.32279 0 7.06253V1.17477ZM23.8837 1.17477C23.8837 0.914519 23.9886 0.664924 24.1752 0.480895C24.3618 0.296867 24.615 0.193481 24.8789 0.193481L30.8498 0.193481C31.1137 0.193481 31.3669 0.296867 31.5535 0.480895C31.7401 0.664924 31.845 0.914519 31.845 1.17477V7.06253C31.845 7.32279 31.7401 7.57238 31.5535 7.75641C31.3669 7.94044 31.1137 8.04382 30.8498 8.04382C30.5859 8.04382 30.3328 7.94044 30.1461 7.75641C30.0498 7.6614 29.9752 6.17172 29.9256 4.75279C29.8753 3.31082 28.6996 2.15607 27.2568 2.15607H24.8789C24.615 2.15607 24.3618 2.05268 24.1752 1.86865C23.9886 1.68463 23.8837 1.43503 23.8837 1.17477ZM0.995155 23.7445C1.25909 23.7445 1.51221 23.8479 1.69884 24.0319C1.88546 24.216 1.99031 24.4655 1.99031 24.7258V26.9836C1.99031 28.4464 3.17616 29.6323 4.63899 29.6323H6.96609C7.23002 29.6323 7.48314 29.7357 7.66977 29.9197C7.8564 30.1037 7.96124 30.3533 7.96124 30.6136C7.96124 30.8738 7.8564 31.1234 7.66977 31.3074C7.48314 31.4915 7.23002 31.5949 6.96609 31.5949H0.995155C0.731224 31.5949 0.478102 31.4915 0.291474 31.3074C0.104846 31.1234 0 30.8738 0 30.6136V24.7258C0 24.4655 0.104846 24.216 0.291474 24.0319C0.478102 23.8479 0.731224 23.7445 0.995155 23.7445ZM30.8498 23.7445C31.1137 23.7445 31.3669 23.8479 31.5535 24.0319C31.7401 24.216 31.845 24.4655 31.845 24.7258V30.6136C31.845 30.8738 31.7401 31.1234 31.5535 31.3074C31.3669 31.4915 31.1137 31.5949 30.8498 31.5949H24.8789C24.615 31.5949 24.3618 31.4915 24.1752 31.3074C23.9886 31.1234 23.8837 30.8738 23.8837 30.6136C23.8837 30.3533 23.9886 30.1037 24.1752 29.9197C24.3618 29.7357 24.615 29.6323 24.8789 29.6323H27.206C28.6688 29.6323 29.8547 28.4464 29.8547 26.9836V24.7258C29.8547 24.4655 29.9595 24.216 30.1461 24.0319C30.3328 23.8479 30.5859 23.7445 30.8498 23.7445Z" fill="#166E3F"/>
<path d="M42.5095 26.3943V8.51429H46.2295V23.1543H53.7895V26.3943H42.5095ZM61.6825 26.6823C60.2905 26.6823 59.0825 26.3783 58.0585 25.7703C57.0345 25.1463 56.2425 24.3143 55.6825 23.2743C55.1225 22.2343 54.8425 21.0823 54.8425 19.8183C54.8425 18.5063 55.1305 17.3383 55.7065 16.3143C56.2985 15.2903 57.0905 14.4823 58.0825 13.8903C59.0745 13.2983 60.1945 13.0023 61.4425 13.0023C62.4825 13.0023 63.4025 13.1703 64.2025 13.5063C65.0025 13.8263 65.6745 14.2823 66.2185 14.8743C66.7785 15.4663 67.2025 16.1543 67.4905 16.9383C67.7785 17.7063 67.9225 18.5463 67.9225 19.4583C67.9225 19.7143 67.9065 19.9703 67.8745 20.2263C67.8585 20.4663 67.8185 20.6743 67.7545 20.8503H57.9385V18.2103H65.7145L64.0105 19.4583C64.1705 18.7703 64.1625 18.1623 63.9865 17.6343C63.8105 17.0903 63.4985 16.6663 63.0505 16.3623C62.6185 16.0423 62.0825 15.8823 61.4425 15.8823C60.8185 15.8823 60.2825 16.0343 59.8345 16.3383C59.3865 16.6423 59.0505 17.0903 58.8265 17.6823C58.6025 18.2743 58.5145 18.9943 58.5625 19.8423C58.4985 20.5783 58.5865 21.2263 58.8265 21.7863C59.0665 22.3463 59.4345 22.7863 59.9305 23.1063C60.4265 23.4103 61.0265 23.5623 61.7305 23.5623C62.3705 23.5623 62.9145 23.4343 63.3625 23.1783C63.8265 22.9223 64.1865 22.5703 64.4425 22.1223L67.3225 23.4903C67.0665 24.1303 66.6585 24.6903 66.0985 25.1703C65.5545 25.6503 64.9065 26.0263 64.1545 26.2983C63.4025 26.5543 62.5785 26.6823 61.6825 26.6823ZM74.0984 26.6823C73.1544 26.6823 72.3384 26.5303 71.6504 26.2263C70.9624 25.9223 70.4344 25.4903 70.0664 24.9303C69.6984 24.3543 69.5144 23.6743 69.5144 22.8903C69.5144 22.1543 69.6824 21.5063 70.0184 20.9463C70.3544 20.3703 70.8664 19.8903 71.5544 19.5063C72.2584 19.1223 73.1304 18.8503 74.1704 18.6903L78.1784 18.0423V20.6823L74.8184 21.2823C74.3064 21.3783 73.9144 21.5463 73.6424 21.7863C73.3704 22.0103 73.2344 22.3383 73.2344 22.7703C73.2344 23.1703 73.3864 23.4823 73.6904 23.7063C73.9944 23.9303 74.3704 24.0423 74.8184 24.0423C75.4104 24.0423 75.9304 23.9143 76.3784 23.6583C76.8264 23.4023 77.1704 23.0583 77.4104 22.6263C77.6664 22.1783 77.7944 21.6903 77.7944 21.1623V17.7543C77.7944 17.2583 77.5944 16.8423 77.1944 16.5063C76.8104 16.1703 76.2824 16.0023 75.6104 16.0023C74.9704 16.0023 74.4024 16.1783 73.9064 16.5303C73.4264 16.8823 73.0744 17.3463 72.8504 17.9223L69.9704 16.5543C70.2264 15.8183 70.6344 15.1863 71.1944 14.6583C71.7544 14.1303 72.4264 13.7223 73.2104 13.4343C73.9944 13.1463 74.8504 13.0023 75.7784 13.0023C76.8824 13.0023 77.8584 13.2023 78.7064 13.6023C79.5544 14.0023 80.2104 14.5623 80.6744 15.2823C81.1544 15.9863 81.3944 16.8103 81.3944 17.7543V26.3943H78.0344V24.2823L78.8504 24.1383C78.4664 24.7143 78.0424 25.1943 77.5784 25.5783C77.1144 25.9463 76.5944 26.2183 76.0184 26.3943C75.4424 26.5863 74.8024 26.6823 74.0984 26.6823ZM85.3842 26.3943V16.4103H83.1762V13.2903H85.3842V13.0983C85.3842 12.0583 85.5842 11.1783 85.9842 10.4583C86.4002 9.73829 86.9922 9.18629 87.7602 8.80229C88.5282 8.41829 89.4562 8.22629 90.5442 8.22629C90.7522 8.22629 90.9762 8.24229 91.2162 8.27429C91.4562 8.29029 91.6562 8.31429 91.8162 8.34629V11.4183C91.6562 11.3863 91.5122 11.3703 91.3842 11.3703C91.2722 11.3543 91.1522 11.3463 91.0242 11.3463C90.3522 11.3463 89.8402 11.4983 89.4882 11.8023C89.1522 12.0903 88.9842 12.5223 88.9842 13.0983V13.2903H91.7922V16.4103H88.9842V26.3943H85.3842ZM102.404 26.6823C101.124 26.6823 99.932 26.4503 98.828 25.9863C97.74 25.5223 96.788 24.8743 95.972 24.0423C95.156 23.2103 94.516 22.2343 94.052 21.1143C93.604 19.9943 93.38 18.7703 93.38 17.4423C93.38 16.1143 93.604 14.8903 94.052 13.7703C94.5 12.6343 95.132 11.6583 95.948 10.8423C96.764 10.0103 97.716 9.37029 98.804 8.92229C99.908 8.45829 101.108 8.22629 102.404 8.22629C103.7 8.22629 104.86 8.44229 105.884 8.87429C106.924 9.30629 107.804 9.88229 108.524 10.6023C109.244 11.3223 109.756 12.1223 110.06 13.0023L106.772 14.5863C106.468 13.7223 105.932 13.0103 105.164 12.4503C104.412 11.8743 103.492 11.5863 102.404 11.5863C101.348 11.5863 100.42 11.8343 99.62 12.3303C98.82 12.8263 98.196 13.5143 97.748 14.3943C97.316 15.2583 97.1 16.2743 97.1 17.4423C97.1 18.6103 97.316 19.6343 97.748 20.5143C98.196 21.3943 98.82 22.0823 99.62 22.5783C100.42 23.0743 101.348 23.3223 102.404 23.3223C103.492 23.3223 104.412 23.0423 105.164 22.4823C105.932 21.9063 106.468 21.1863 106.772 20.3223L110.06 21.9063C109.756 22.7863 109.244 23.5863 108.524 24.3063C107.804 25.0263 106.924 25.6023 105.884 26.0343C104.86 26.4663 103.7 26.6823 102.404 26.6823ZM112.183 26.3943V8.22629H115.783V15.8823L115.351 15.3063C115.655 14.5223 116.143 13.9463 116.815 13.5783C117.503 13.1943 118.303 13.0023 119.215 13.0023C120.207 13.0023 121.071 13.2103 121.807 13.6263C122.559 14.0423 123.143 14.6263 123.559 15.3783C123.975 16.1143 124.183 16.9783 124.183 17.9703V26.3943H120.583V18.7383C120.583 18.2263 120.479 17.7863 120.271 17.4183C120.079 17.0503 119.799 16.7623 119.431 16.5543C119.079 16.3463 118.663 16.2423 118.183 16.2423C117.719 16.2423 117.303 16.3463 116.935 16.5543C116.567 16.7623 116.279 17.0503 116.071 17.4183C115.879 17.7863 115.783 18.2263 115.783 18.7383V26.3943H112.183ZM132.862 26.6823C131.47 26.6823 130.262 26.3783 129.238 25.7703C128.214 25.1463 127.422 24.3143 126.862 23.2743C126.302 22.2343 126.022 21.0823 126.022 19.8183C126.022 18.5063 126.31 17.3383 126.886 16.3143C127.478 15.2903 128.27 14.4823 129.262 13.8903C130.254 13.2983 131.374 13.0023 132.622 13.0023C133.662 13.0023 134.582 13.1703 135.382 13.5063C136.182 13.8263 136.854 14.2823 137.398 14.8743C137.958 15.4663 138.382 16.1543 138.67 16.9383C138.958 17.7063 139.102 18.5463 139.102 19.4583C139.102 19.7143 139.086 19.9703 139.054 20.2263C139.038 20.4663 138.998 20.6743 138.934 20.8503H129.118V18.2103H136.894L135.19 19.4583C135.35 18.7703 135.342 18.1623 135.166 17.6343C134.99 17.0903 134.678 16.6663 134.23 16.3623C133.798 16.0423 133.262 15.8823 132.622 15.8823C131.998 15.8823 131.462 16.0343 131.014 16.3383C130.566 16.6423 130.23 17.0903 130.006 17.6823C129.782 18.2743 129.694 18.9943 129.742 19.8423C129.678 20.5783 129.766 21.2263 130.006 21.7863C130.246 22.3463 130.614 22.7863 131.11 23.1063C131.606 23.4103 132.206 23.5623 132.91 23.5623C133.55 23.5623 134.094 23.4343 134.542 23.1783C135.006 22.9223 135.366 22.5703 135.622 22.1223L138.502 23.4903C138.246 24.1303 137.838 24.6903 137.278 25.1703C136.734 25.6503 136.086 26.0263 135.334 26.2983C134.582 26.5543 133.758 26.6823 132.862 26.6823ZM147.654 26.6823C146.342 26.6823 145.158 26.3863 144.102 25.7943C143.062 25.1863 142.23 24.3623 141.606 23.3223C140.998 22.2823 140.694 21.1143 140.694 19.8183C140.694 18.5223 140.998 17.3623 141.606 16.3383C142.214 15.2983 143.046 14.4823 144.102 13.8903C145.158 13.2983 146.342 13.0023 147.654 13.0023C148.63 13.0023 149.534 13.1703 150.366 13.5063C151.198 13.8423 151.91 14.3143 152.502 14.9223C153.094 15.5143 153.518 16.2183 153.774 17.0343L150.654 18.3783C150.43 17.7223 150.046 17.2023 149.502 16.8183C148.974 16.4343 148.358 16.2423 147.654 16.2423C147.03 16.2423 146.47 16.3943 145.974 16.6983C145.494 17.0023 145.11 17.4263 144.822 17.9703C144.55 18.5143 144.414 19.1383 144.414 19.8423C144.414 20.5463 144.55 21.1703 144.822 21.7143C145.11 22.2583 145.494 22.6823 145.974 22.9863C146.47 23.2903 147.03 23.4423 147.654 23.4423C148.374 23.4423 148.998 23.2503 149.526 22.8663C150.054 22.4823 150.43 21.9623 150.654 21.3063L153.774 22.6743C153.534 23.4423 153.118 24.1303 152.526 24.7383C151.934 25.3463 151.222 25.8263 150.39 26.1783C149.558 26.5143 148.646 26.6823 147.654 26.6823ZM155.894 26.3943V8.22629H159.494V19.8663L158.15 19.4343L163.934 13.2903H168.374L163.622 18.5703L168.35 26.3943H164.27L160.31 19.7463L162.398 19.2183L158.39 23.5863L159.494 21.4983V26.3943H155.894Z" fill="#166E3F"/>
</svg>
