<svg width="151" height="100" viewBox="0 0 151 100" fill="none" xmlns="http://www.w3.org/2000/svg">
<path d="M134.015 47.3756C134.209 46.6273 134.094 45.9385 133.671 45.3093C133.464 44.9701 133.209 44.7133 132.907 44.5389C132.621 44.337 132.296 44.2038 131.93 44.1392C131.166 43.9725 130.456 44.0932 129.8 44.5012C127.965 45.6197 126.026 46.5224 123.983 47.2093C125.883 45.8178 127.643 44.1159 129.262 42.1037C129.725 41.4922 129.914 40.8147 129.831 40.071C129.742 39.3056 129.384 38.7052 128.757 38.2697C128.146 37.8068 127.458 37.6199 126.692 37.7088C125.912 37.8252 125.276 38.1812 124.786 38.7768C123.333 40.6286 121.72 42.1404 119.946 43.3122C119.043 43.9256 117.888 44.4208 116.48 44.7979C116.954 43.8818 117.543 42.8766 118.248 41.7825C118.672 41.1119 118.798 40.4163 118.629 39.6959C118.453 38.9537 118.036 38.3924 117.377 38.0118C116.712 37.6096 115.998 37.4992 115.235 37.6806C114.71 37.7982 114.265 38.0449 113.902 38.4209C113.752 38.5539 113.611 38.7194 113.478 38.9174C113.134 39.4508 112.819 39.9646 112.534 40.4588C111.73 41.7884 111.106 43.0117 110.663 44.1286C110.647 44.1561 110.642 44.1806 110.648 44.2023L110.346 45.1537C109.575 47.1245 109.191 49.2003 109.196 51.3812C109.435 54.6131 110.863 56.7837 113.481 57.8928C113.585 57.9346 113.689 57.9763 113.793 58.0181C114.071 58.1059 114.339 58.1966 114.596 58.2901C115.912 58.6107 117.491 58.7447 119.333 58.6921C120.664 58.6371 122.124 58.5012 123.713 58.2842L126.692 57.9732C127.463 57.9059 128.233 57.7923 129.002 57.6326C129.203 57.602 129.401 57.5607 129.595 57.5084C130.359 57.327 130.944 56.9148 131.352 56.2716C131.754 55.6068 131.87 54.9142 131.7 54.1937C131.525 53.4515 131.108 52.8902 130.449 52.5096C129.784 52.1074 129.07 51.997 128.307 52.1784C127.283 52.4294 126.239 52.5584 125.174 52.5654C127.845 51.7103 130.367 50.5585 132.74 49.1102C133.24 48.8135 133.601 48.4268 133.821 47.9499C133.91 47.7635 133.975 47.5721 134.015 47.3756Z" fill="#01C070"/>
<path d="M122.953 73.1057V84.5395M122.953 84.5395L137.526 97.9833M122.953 84.5395L109.872 97.9833" stroke="black" stroke-width="1.8662"/>
<rect x="94.2881" y="23.0547" width="55.1607" height="48.807" rx="2.48827" fill="white" stroke="black" stroke-width="2.48827"/>
<g clip-path="url(#clip0_449_167)">
<path d="M106.84 39.7605C106.607 39.6164 106.413 39.4723 106.258 39.3282C106.103 39.1841 105.977 39.0231 105.88 38.8456C105.783 38.6681 105.714 38.4672 105.673 38.2434C105.632 38.0193 105.611 37.7582 105.611 37.4597V34.8343C105.611 34.4432 105.656 34.0945 105.746 33.7881C105.835 33.482 105.954 33.2232 106.102 33.0121C106.25 32.8011 106.419 32.6402 106.611 32.5295C106.802 32.419 107.002 32.3635 107.21 32.3635H107.937C108.252 32.3635 108.5 32.4729 108.682 32.6917C108.863 32.9105 108.954 33.2645 108.954 33.7534V37.9228C108.954 38.3244 109.03 38.605 109.183 38.7644C109.336 38.924 109.55 39.0037 109.826 39.0037H111.28C111.439 39.0037 111.575 38.9845 111.687 38.9459C111.798 38.9072 111.889 38.8454 111.959 38.7605C112.029 38.6755 112.079 38.5648 112.108 38.4285C112.137 38.2923 112.152 38.1235 112.152 37.9228V33.4444C112.152 33.2335 112.168 33.0584 112.203 32.9195C112.236 32.7806 112.292 32.6699 112.37 32.5875C112.447 32.5052 112.551 32.4473 112.682 32.4137C112.813 32.3803 112.975 32.3635 113.169 32.3635H114.623C114.86 32.3635 115.07 32.3958 115.251 32.46C115.433 32.5244 115.584 32.6299 115.705 32.7767C115.827 32.9234 115.919 33.1138 115.982 33.3481C116.045 33.5824 116.076 33.8719 116.076 34.2167V38.5407C116.076 38.7056 116.1 38.8239 116.149 38.896C116.197 38.9681 116.294 39.0041 116.44 39.0041C116.58 39.0041 116.676 38.9617 116.727 38.8768C116.778 38.7918 116.803 38.6798 116.803 38.5409V33.4444C116.803 33.2335 116.82 33.0584 116.854 32.9195C116.888 32.7806 116.943 32.6699 117.021 32.5875C117.098 32.5052 117.203 32.4473 117.333 32.4137C117.464 32.3803 117.626 32.3635 117.82 32.3635H119.274C119.511 32.3635 119.721 32.3958 119.902 32.46C120.084 32.5244 120.235 32.6299 120.357 32.7767C120.478 32.9234 120.57 33.1138 120.633 33.3481C120.696 33.5824 120.727 33.8719 120.727 34.2167V39.6217H119.419V34.2166C119.419 33.7532 119.345 33.4317 119.198 33.2514C119.05 33.0712 118.833 32.9811 118.547 32.9811H117.82C117.723 32.9811 117.646 32.9876 117.588 33.0003C117.53 33.0132 117.486 33.0363 117.457 33.0698C117.428 33.1034 117.409 33.1508 117.399 33.2126C117.389 33.2745 117.384 33.3518 117.384 33.4444V38.5406C117.384 38.7567 117.356 38.9356 117.301 39.0773C117.245 39.219 117.173 39.3295 117.086 39.4092C116.999 39.4891 116.898 39.5444 116.785 39.5752C116.671 39.606 116.556 39.6215 116.439 39.6215H115.713C115.412 39.6215 115.18 39.5339 115.015 39.359C114.85 39.1841 114.768 38.9111 114.768 38.5406V34.2166C114.768 33.7532 114.694 33.4317 114.546 33.2514C114.399 33.0712 114.182 32.9811 113.896 32.9811H113.169C113.072 32.9811 112.995 32.9876 112.937 33.0003C112.878 33.0132 112.835 33.0363 112.806 33.0698C112.777 33.1034 112.757 33.1508 112.748 33.2126C112.738 33.2745 112.733 33.3518 112.733 33.4444V37.9228C112.733 38.2421 112.707 38.5109 112.653 38.7297C112.6 38.9485 112.515 39.1234 112.399 39.2546C112.283 39.3859 112.132 39.48 111.948 39.5365C111.764 39.5933 111.541 39.6215 111.28 39.6215H109.1C108.62 39.6215 108.258 39.4839 108.013 39.2083C107.768 38.933 107.646 38.5045 107.646 37.9228V33.7534C107.646 33.4704 107.605 33.2708 107.523 33.1551C107.44 33.0393 107.336 32.9813 107.21 32.9813C107.075 32.9813 106.945 33.0212 106.821 33.1009C106.698 33.1808 106.59 33.2992 106.498 33.456C106.406 33.613 106.332 33.8073 106.276 34.039C106.221 34.2707 106.193 34.5358 106.193 34.8343V37.4595C106.193 37.6861 106.21 37.8868 106.244 38.0617C106.278 38.2368 106.331 38.3936 106.404 38.5327C106.476 38.6716 106.572 38.7978 106.691 38.9111C106.809 39.0244 106.956 39.135 107.13 39.2431L106.84 39.7605Z" fill="black"/>
<path d="M124.42 39.7605C124.187 39.6164 124.001 39.4633 123.86 39.3011C123.719 39.1389 123.61 38.955 123.533 38.7491C123.456 38.5432 123.403 38.3104 123.377 38.0503C123.35 37.7905 123.337 37.4905 123.337 37.1509V34.5255C123.337 34.1755 123.379 33.8654 123.464 33.5951C123.549 33.3248 123.66 33.0983 123.798 32.9156C123.937 32.733 124.093 32.5952 124.267 32.5024C124.441 32.4098 124.616 32.3635 124.79 32.3635H125.517C125.662 32.3635 125.797 32.388 125.92 32.4369C126.044 32.4858 126.151 32.5657 126.244 32.6762C126.336 32.7869 126.407 32.931 126.458 33.1086C126.509 33.2861 126.534 33.5012 126.534 33.7534V35.9154C126.917 35.9154 127.278 35.9462 127.617 36.008C127.956 36.0698 128.274 36.1547 128.569 36.2628V34.5255C128.569 34.1292 128.617 33.7933 128.714 33.518C128.811 33.2426 128.944 33.0199 129.114 32.85C129.284 32.6801 129.483 32.5566 129.714 32.4795C129.944 32.4022 130.192 32.3637 130.458 32.3637H132.348C132.624 32.3637 132.878 32.4061 133.111 32.491C133.344 32.576 133.543 32.7149 133.711 32.9079C133.878 33.1009 134.007 33.3544 134.099 33.6685C134.191 33.9825 134.238 34.3711 134.238 34.8343V38.5406C134.238 38.7054 134.262 38.8238 134.31 38.8958C134.359 38.9679 134.456 39.0039 134.601 39.0039C134.741 39.0039 134.837 38.9615 134.888 38.8766C134.939 38.7917 134.964 38.6796 134.964 38.5407V35.1433C134.964 34.7109 134.953 34.3467 134.932 34.0508C134.91 33.7549 134.871 33.5025 134.815 33.2942C134.76 33.0856 134.686 32.9094 134.594 32.7653C134.502 32.6212 134.385 32.4873 134.245 32.3637H136.708C137.018 32.3637 137.284 32.405 137.504 32.4873C137.725 32.5696 137.905 32.7035 138.046 32.8889C138.186 33.0742 138.289 33.3136 138.354 33.6068C138.42 33.9001 138.453 34.258 138.453 34.6801V39.6217H137.144V34.6801C137.144 34.3713 137.121 34.1087 137.075 33.8925C137.029 33.6763 136.958 33.5001 136.861 33.3636C136.764 33.2273 136.643 33.1295 136.498 33.0701C136.352 33.0109 136.18 32.9813 135.982 32.9813H135.357C135.415 33.1974 135.461 33.478 135.495 33.8228C135.529 34.1678 135.546 34.6079 135.546 35.1433V38.5406C135.546 38.7567 135.518 38.9356 135.462 39.0773C135.406 39.219 135.335 39.3295 135.248 39.4092C135.161 39.4891 135.06 39.5444 134.946 39.5752C134.832 39.606 134.717 39.6215 134.601 39.6215H133.874C133.574 39.6215 133.341 39.5339 133.176 39.359C133.012 39.1841 132.929 38.9111 132.929 38.5406V34.8343C132.929 34.4895 132.895 34.1986 132.828 33.9617C132.76 33.725 132.667 33.5333 132.548 33.3866C132.429 33.2398 132.29 33.1357 132.13 33.0739C131.97 33.0121 131.801 32.9813 131.621 32.9813H130.459C130.26 32.9813 130.081 33.0083 129.921 33.0623C129.761 33.1164 129.624 33.204 129.51 33.3248C129.396 33.4457 129.308 33.604 129.245 33.7997C129.182 33.9953 129.15 34.2373 129.15 34.5255V36.5176C129.427 36.6618 129.672 36.824 129.888 37.0041C130.104 37.1843 130.286 37.3736 130.437 37.5717C130.587 37.7699 130.701 37.9706 130.778 38.1739C130.856 38.3774 130.895 38.5768 130.895 38.7722C130.895 39.0965 130.788 39.345 130.575 39.5173C130.361 39.6896 130.081 39.776 129.732 39.776C129.349 39.776 129.059 39.6719 128.863 39.4633C128.667 39.2548 128.569 38.8958 128.569 38.3862V37.0504C128.302 36.9013 128 36.7777 127.661 36.6799C127.321 36.5822 126.946 36.5331 126.534 36.5331V39.6217H125.226V33.7534C125.226 33.594 125.215 33.4638 125.193 33.3634C125.171 33.263 125.141 33.1846 125.102 33.128C125.064 33.0714 125.018 33.0328 124.964 33.0123C124.911 32.9917 124.853 32.9815 124.79 32.9815C124.693 32.9815 124.592 33.0137 124.488 33.078C124.384 33.1424 124.29 33.2389 124.205 33.3675C124.12 33.4963 124.051 33.6571 123.998 33.8501C123.944 34.0431 123.918 34.2685 123.918 34.5257V37.1509C123.918 37.4341 123.926 37.6824 123.943 37.8959C123.96 38.1097 123.997 38.2988 124.052 38.4635C124.108 38.6283 124.188 38.7722 124.292 38.8958C124.396 39.0194 124.536 39.1352 124.71 39.2432L124.42 39.7605ZM129.15 37.4673V38.3862C129.15 38.5921 129.189 38.7465 129.267 38.8495C129.344 38.9526 129.451 39.0039 129.587 39.0039C129.698 39.0039 129.774 38.9768 129.816 38.9229C129.857 38.8688 129.877 38.793 129.877 38.6951C129.877 38.5305 129.816 38.3374 129.692 38.116C129.568 37.8946 129.388 37.6784 129.15 37.4673Z" fill="black"/>
</g>
<path d="M106.694 62.9261C106.461 62.782 106.275 62.6289 106.134 62.4666C105.994 62.3044 105.885 62.1205 105.807 61.9146C105.73 61.7087 105.678 61.4759 105.651 61.2159C105.625 60.956 105.611 60.656 105.611 60.3164V58.7721C105.611 58.1699 105.666 57.6629 105.775 57.251C105.884 56.8392 106.04 56.506 106.244 56.2512C106.447 55.9963 106.692 55.8124 106.978 55.6991C107.263 55.586 107.583 55.5292 107.937 55.5292H109.681V56.147C109.536 56.2859 109.409 56.4365 109.3 56.5988C109.191 56.761 109.1 56.963 109.027 57.2049C108.954 57.4469 108.9 57.743 108.863 58.0928C108.827 58.4428 108.809 58.8754 108.809 59.3899V60.6254C108.809 61.1763 108.913 61.5713 109.121 61.8106C109.33 62.05 109.662 62.1696 110.117 62.1696H112.515C112.97 62.1696 113.302 62.0473 113.511 61.8028C113.719 61.5584 113.823 61.1658 113.823 60.6254V58.3088C113.823 57.9125 113.782 57.5766 113.7 57.3013C113.617 57.0259 113.49 56.8032 113.318 56.6333C113.146 56.4634 112.928 56.3398 112.664 56.2627C112.4 56.1854 112.084 56.147 111.716 56.147V55.5291H115.059C115.398 55.5291 115.686 55.5714 115.924 55.6564C116.161 55.7413 116.356 55.8623 116.509 56.0193C116.661 56.1763 116.773 56.3693 116.843 56.5984C116.913 56.8274 116.948 57.0886 116.948 57.3821V62.787H115.64V57.3821C115.64 57.0218 115.53 56.7257 115.31 56.4942C115.089 56.2625 114.763 56.1468 114.332 56.1468H113.751C113.978 56.3734 114.144 56.663 114.248 57.0154C114.353 57.3681 114.405 57.7991 114.405 58.3088V60.6252C114.405 61.3613 114.244 61.9057 113.922 62.2583C113.599 62.611 113.13 62.7872 112.515 62.7872H109.39C108.775 62.7872 108.306 62.6134 107.984 62.266C107.662 61.9185 107.501 61.3715 107.501 60.6252V59.3897C107.501 58.9523 107.516 58.5634 107.545 58.2239C107.574 57.8841 107.622 57.583 107.69 57.3205C107.758 57.058 107.846 56.8316 107.955 56.6409C108.064 56.4505 108.196 56.2857 108.351 56.1468H107.937C107.661 56.1468 107.415 56.1881 107.199 56.2704C106.984 56.3527 106.801 56.4942 106.651 56.6951C106.5 56.8958 106.387 57.1648 106.309 57.5019C106.232 57.8391 106.193 58.2625 106.193 58.7721V60.3164C106.193 60.5996 106.201 60.8479 106.218 61.0615C106.235 61.2752 106.271 61.4643 106.327 61.629C106.383 61.7938 106.463 61.9378 106.567 62.0613C106.671 62.1849 106.811 62.3007 106.985 62.4088L106.694 62.9261Z" fill="black"/>
<path d="M132.296 51.6797C132.063 51.5356 131.869 51.3915 131.714 51.2474C131.559 51.1033 131.433 50.9423 131.336 50.7648C131.239 50.5873 131.17 50.3864 131.129 50.1625C131.088 49.9387 131.067 49.6774 131.067 49.3788V46.4447C131.067 46.0947 131.11 45.7846 131.195 45.5143C131.279 45.244 131.391 45.0175 131.529 44.8347C131.667 44.6522 131.823 44.5144 131.998 44.4216C132.172 44.329 132.347 44.2827 132.521 44.2827H133.248C133.393 44.2827 133.527 44.3072 133.651 44.3561C133.774 44.405 133.882 44.4849 133.974 44.5954C134.066 44.7061 134.138 44.8502 134.189 45.0278C134.24 45.2053 134.265 45.4204 134.265 45.6726V49.842C134.265 50.2436 134.341 50.5242 134.494 50.6836C134.647 50.8432 134.861 50.9229 135.137 50.9229H136.343C136.096 50.7375 135.906 50.506 135.773 50.2281C135.64 49.9501 135.573 49.6156 135.573 49.2243V47.5256C135.573 47.1035 135.648 46.6969 135.798 46.3056C135.948 45.9145 136.173 45.5682 136.471 45.2671C136.769 44.966 137.139 44.7267 137.583 44.5491C138.026 44.3716 138.543 44.2827 139.134 44.2827C139.682 44.2827 140.161 44.3329 140.573 44.4334C140.985 44.5338 141.343 44.6688 141.649 44.8387C141.954 45.0085 142.214 45.2055 142.43 45.4293C142.645 45.6532 142.831 45.8888 142.986 46.1358C142.186 46.1358 141.44 46.1912 140.747 46.3017C140.055 46.4124 139.426 46.5605 138.862 46.7457C138.297 46.931 137.8 47.1446 137.372 47.3865C136.943 47.6285 136.588 47.8833 136.307 48.151C136.932 48.1615 137.513 48.2257 138.051 48.344C138.589 48.4626 139.081 48.617 139.526 48.8074C139.972 48.9978 140.37 49.2127 140.722 49.4522C141.073 49.6915 141.376 49.9348 141.63 50.182C141.885 50.4291 142.088 50.6711 142.241 50.9078C142.393 51.1447 142.496 51.3557 142.55 51.541H141.241C141.183 51.3301 141.066 51.1139 140.889 50.8925C140.712 50.6713 140.492 50.4575 140.228 50.2516C139.964 50.0457 139.667 49.8528 139.337 49.6725C139.008 49.4923 138.664 49.334 138.305 49.1976C137.947 49.0613 137.583 48.9543 137.215 48.8772C136.847 48.7999 136.493 48.7615 136.154 48.7615V49.2248C136.154 49.5491 136.223 49.8207 136.361 50.0393C136.5 50.2581 136.691 50.4331 136.935 50.5643C137.18 50.6955 137.471 50.7881 137.807 50.8423C138.144 50.8964 138.513 50.9233 138.916 50.9233V51.541H134.41C133.93 51.541 133.568 51.4034 133.324 51.1279C133.079 50.8525 132.957 50.4241 132.957 49.8424V45.6726C132.957 45.5132 132.946 45.383 132.924 45.2826C132.902 45.1822 132.872 45.1038 132.833 45.0472C132.794 44.9906 132.748 44.952 132.695 44.9314C132.642 44.9109 132.583 44.9006 132.52 44.9006C132.423 44.9006 132.323 44.9329 132.219 44.9972C132.115 45.0616 132.02 45.1581 131.936 45.2867C131.851 45.4155 131.782 45.5763 131.728 45.7693C131.675 45.9623 131.648 46.1876 131.648 46.4449V49.379C131.648 49.6057 131.665 49.8064 131.699 49.9813C131.733 50.1564 131.787 50.3132 131.859 50.4523C131.932 50.5912 132.028 50.7174 132.146 50.8307C132.265 50.944 132.412 51.0545 132.586 51.1626L132.296 51.6797ZM136.155 47.5643C136.416 47.3378 136.714 47.1229 137.048 46.9195C137.383 46.7162 137.745 46.5323 138.135 46.3674C138.525 46.2028 138.938 46.06 139.374 45.939C139.81 45.818 140.26 45.7215 140.726 45.6494C140.522 45.49 140.264 45.3509 139.952 45.2326C139.639 45.1142 139.245 45.055 138.771 45.055C138.397 45.055 138.055 45.1194 137.742 45.2481C137.43 45.3769 137.159 45.5544 136.929 45.7809C136.698 46.0075 136.515 46.2739 136.38 46.5801C136.244 46.886 136.169 47.2142 136.155 47.5643Z" fill="black"/>
<path d="M120.786 44.5231C120.433 44.5231 120.14 44.496 119.907 44.4421C119.674 44.3881 119.481 44.3211 119.326 44.2414C119.17 44.1617 119.042 44.0754 118.94 43.9827C118.839 43.8901 118.739 43.8038 118.642 43.7239C118.545 43.6442 118.439 43.5772 118.323 43.5232C118.206 43.4691 118.059 43.4422 117.879 43.4422V42.8245H122.094C122.458 42.8245 122.768 42.8836 123.025 43.002C123.281 43.1205 123.491 43.2915 123.653 43.5154C123.815 43.7392 123.935 44.0135 124.013 44.3377C124.09 44.662 124.129 45.0326 124.129 45.4496C124.129 46.8858 123.768 48.0363 123.046 48.9011L123.984 49.264C124.076 49.3 124.157 49.3297 124.227 49.3528C124.297 49.376 124.362 49.3876 124.42 49.3876C124.585 49.3876 124.698 49.3155 124.761 49.1714C124.824 49.0273 124.856 48.8161 124.856 48.5381V44.2143C124.856 43.9621 124.878 43.7486 124.921 43.5734C124.965 43.3985 125.038 43.2557 125.139 43.145C125.241 43.0343 125.376 42.9533 125.543 42.9018C125.71 42.8502 125.917 42.8245 126.164 42.8245H128.344C128.63 42.8245 128.882 42.8683 129.1 42.9557C129.318 43.0433 129.5 43.168 129.645 43.3302C129.79 43.4924 129.9 43.6881 129.976 43.9169C130.051 44.146 130.088 44.3995 130.088 44.6775V50.0824H128.78V44.6775C128.78 44.2349 128.688 43.9183 128.504 43.7278C128.32 43.5374 128.024 43.4422 127.617 43.4422H126.164C126.014 43.4422 125.891 43.4551 125.797 43.4808C125.702 43.5066 125.629 43.5503 125.575 43.6121C125.522 43.6739 125.486 43.7538 125.466 43.8514C125.447 43.9492 125.437 44.0702 125.437 44.2143V48.5383C125.437 48.8215 125.422 49.0609 125.39 49.2563C125.358 49.452 125.31 49.6116 125.245 49.735C125.179 49.8586 125.096 49.9472 124.994 50.0014C124.892 50.0555 124.774 50.0824 124.638 50.0824C124.522 50.0824 124.392 50.0645 124.249 50.0283C124.106 49.9922 123.945 49.9407 123.766 49.8739L121.397 48.9629C121.862 48.4687 122.215 47.9385 122.458 47.3723C122.7 46.8061 122.821 46.1652 122.821 45.4496C122.821 44.7908 122.703 44.2914 122.465 43.9517C122.228 43.6119 121.862 43.442 121.368 43.442H119.813C119.905 43.5656 120.025 43.6737 120.172 43.7663C120.32 43.8589 120.525 43.9052 120.786 43.9052V44.5231Z" fill="black"/>
<path d="M104.412 49.6963C104.654 49.4391 104.894 49.2177 105.132 49.0323C105.369 48.8469 105.609 48.6951 105.851 48.5768C106.093 48.4584 106.342 48.3711 106.596 48.3143C106.85 48.2577 107.116 48.2294 107.392 48.2294C107.799 48.2294 108.191 48.2938 108.569 48.4224C108.947 48.5512 109.323 48.6927 109.699 48.8471C110.074 49.0015 110.455 49.1432 110.84 49.2718C111.225 49.4006 111.626 49.4649 112.042 49.4649C112.294 49.4649 112.505 49.443 112.675 49.3991C112.844 49.3555 112.979 49.2808 113.078 49.1753C113.177 49.0698 113.247 48.9281 113.289 48.7506C113.33 48.5731 113.35 48.3479 113.35 48.075V47.9437C112.929 47.8974 112.529 47.8461 112.151 47.7894C111.773 47.7328 111.442 47.6505 111.156 47.5422C110.87 47.4341 110.644 47.2887 110.476 47.1059C110.309 46.9233 110.226 46.6801 110.226 46.3761C110.226 46.196 110.253 46.0377 110.309 45.9012C110.365 45.7649 110.44 45.6516 110.535 45.5615C110.629 45.4715 110.738 45.4045 110.862 45.3608C110.985 45.3171 111.112 45.2951 111.243 45.2951C111.446 45.2951 111.642 45.3374 111.828 45.4224C112.014 45.5073 112.171 45.6322 112.297 45.7969L111.897 46.2216C111.781 46.098 111.671 46.0158 111.566 45.9744C111.462 45.9333 111.367 45.9126 111.279 45.9126C111.158 45.9126 111.061 45.9539 110.989 46.0362C110.916 46.1185 110.88 46.2318 110.88 46.376C110.88 46.5408 110.944 46.676 111.072 46.7813C111.201 46.8867 111.376 46.9732 111.599 47.04C111.822 47.107 112.084 47.161 112.384 47.2022C112.684 47.2435 113.007 47.2846 113.351 47.3258V44.0599C113.351 43.6584 113.451 43.3522 113.652 43.1411C113.853 42.9299 114.14 42.8245 114.513 42.8245H115.24C115.419 42.8245 115.589 42.8631 115.749 42.9402C115.909 43.0173 116.048 43.1332 116.167 43.2876C116.285 43.442 116.379 43.635 116.446 43.8667C116.514 44.0984 116.548 44.3685 116.548 44.6775V47.9436C116.829 48.0466 117.096 48.1689 117.348 48.3104C117.599 48.4521 117.83 48.6192 118.038 48.8122C118.246 49.0052 118.427 49.2266 118.579 49.4762C118.732 49.726 118.849 50.013 118.932 50.3372L118.329 50.5071C118.29 50.3733 118.232 50.2689 118.154 50.1944C118.077 50.1197 117.977 50.0824 117.856 50.0824C117.779 50.0824 117.679 50.094 117.558 50.1171C117.437 50.1403 117.306 50.18 117.166 50.2368L116.969 49.6577C117.115 49.6011 117.258 49.5535 117.398 49.5149C117.539 49.4762 117.667 49.4492 117.783 49.4339C117.619 49.2434 117.432 49.0786 117.224 48.9397C117.015 48.8008 116.79 48.6798 116.548 48.5768V50.0824H115.24V48.1984C115.022 48.1573 114.804 48.1211 114.586 48.0903C114.368 48.0595 114.15 48.0311 113.932 48.0053V48.0748C113.932 48.4816 113.892 48.8225 113.812 49.0978C113.732 49.3732 113.596 49.5959 113.405 49.7658C113.214 49.9357 112.959 50.0566 112.642 50.1287C112.325 50.2008 111.931 50.2368 111.461 50.2368C111.146 50.2368 110.854 50.2136 110.585 50.1673C110.317 50.121 110.06 50.0645 109.815 49.9975C109.57 49.9306 109.332 49.856 109.099 49.7736C108.867 49.6913 108.63 49.6166 108.391 49.5498C108.151 49.483 107.901 49.4262 107.642 49.3799C107.383 49.3336 107.106 49.3105 106.81 49.3105C106.369 49.3105 105.974 49.3812 105.625 49.5227C105.277 49.6644 104.993 49.8509 104.775 50.0826L104.412 49.6963ZM113.932 47.3954C114.15 47.4212 114.367 47.4496 114.582 47.4804C114.798 47.5112 115.017 47.5474 115.24 47.5885V44.6775C115.24 44.2246 115.178 43.9054 115.055 43.72C114.931 43.5346 114.751 43.442 114.513 43.442C114.126 43.442 113.932 43.6479 113.932 44.0598V47.3954Z" fill="black"/>
<path d="M120.472 62.115C120.714 61.8578 120.954 61.6364 121.191 61.451C121.429 61.2656 121.668 61.1138 121.911 60.9955C122.153 60.8771 122.401 60.7898 122.656 60.733C122.91 60.6764 123.175 60.6481 123.451 60.6481C123.858 60.6481 124.251 60.7125 124.629 60.8411C125.006 60.9699 125.383 61.1114 125.758 61.2658C126.134 61.4202 126.514 61.5619 126.899 61.6905C127.284 61.8193 127.685 61.8836 128.102 61.8836C128.354 61.8836 128.565 61.8617 128.734 61.8178C128.904 61.7742 129.038 61.6995 129.137 61.594C129.237 61.4885 129.307 61.3468 129.348 61.1693C129.389 60.9918 129.41 60.7666 129.41 60.4937V60.3624C128.988 60.3161 128.589 60.2648 128.211 60.2081C127.833 60.1515 127.501 60.0692 127.215 59.9609C126.93 59.8528 126.703 59.7074 126.536 59.5246C126.369 59.342 126.285 59.0988 126.285 58.7948C126.285 58.6147 126.313 58.4564 126.369 58.3199C126.425 58.1836 126.5 58.0703 126.594 57.9802C126.689 57.8902 126.798 57.8232 126.921 57.7795C127.045 57.7358 127.172 57.7138 127.303 57.7138C127.506 57.7138 127.701 57.7561 127.888 57.8411C128.074 57.926 128.23 58.0509 128.356 58.2156L127.957 58.6403C127.84 58.5167 127.73 58.4345 127.626 58.3931C127.522 58.352 127.426 58.3313 127.339 58.3313C127.218 58.3313 127.121 58.3726 127.048 58.4549C126.975 58.5372 126.939 58.6505 126.939 58.7947C126.939 58.9595 127.003 59.0947 127.132 59.2C127.26 59.3054 127.436 59.3919 127.659 59.4587C127.882 59.5257 128.143 59.5797 128.444 59.6209C128.744 59.6622 129.066 59.7033 129.41 59.7445V56.4786C129.41 56.0771 129.511 55.7709 129.712 55.5598C129.913 55.3486 130.2 55.2432 130.573 55.2432H131.3C131.479 55.2432 131.648 55.2818 131.808 55.3589C131.968 55.436 132.107 55.5519 132.226 55.7063C132.345 55.8607 132.438 56.0538 132.506 56.2854C132.574 56.5171 132.608 56.7872 132.608 57.0962V60.3623C132.889 60.4653 133.155 60.5876 133.407 60.7291C133.659 60.8708 133.889 61.0379 134.097 61.2309C134.306 61.4239 134.486 61.6453 134.639 61.8949C134.792 62.1447 134.909 62.4317 134.991 62.7559L134.388 62.9258C134.349 62.792 134.291 62.6876 134.214 62.6131C134.136 62.5384 134.037 62.5011 133.916 62.5011C133.838 62.5011 133.739 62.5127 133.618 62.5358C133.496 62.559 133.366 62.5987 133.225 62.6555L133.029 62.0764C133.174 62.0198 133.317 61.9722 133.458 61.9336C133.598 61.8949 133.727 61.8679 133.843 61.8526C133.678 61.6621 133.491 61.4973 133.283 61.3584C133.075 61.2195 132.85 61.0985 132.608 60.9955V62.5011H131.299V60.6171C131.081 60.576 130.863 60.5398 130.645 60.509C130.427 60.4782 130.209 60.4498 129.991 60.424V60.4935C129.991 60.9003 129.952 61.2412 129.872 61.5165C129.792 61.7919 129.656 62.0146 129.465 62.1845C129.273 62.3544 129.019 62.4753 128.702 62.5474C128.384 62.6195 127.99 62.6555 127.521 62.6555C127.206 62.6555 126.914 62.6323 126.645 62.586C126.376 62.5397 126.119 62.4832 125.875 62.4162C125.63 62.3493 125.391 62.2747 125.159 62.1923C124.926 62.11 124.69 62.0353 124.45 61.9685C124.21 61.9017 123.961 61.8449 123.702 61.7986C123.443 61.7523 123.165 61.7292 122.87 61.7292C122.429 61.7292 122.034 61.7999 121.685 61.9414C121.336 62.0831 121.053 62.2696 120.835 62.5013L120.472 62.115ZM129.992 59.8141C130.21 59.8399 130.426 59.8683 130.642 59.8991C130.858 59.9299 131.077 59.9661 131.3 60.0072V57.0962C131.3 56.6433 131.238 56.3241 131.114 56.1387C130.991 55.9533 130.81 55.8607 130.573 55.8607C130.185 55.8607 129.992 56.0666 129.992 56.4785V59.8141Z" fill="black"/>
<path d="M11.0146 70.1314C16.3839 74.4148 18.4231 67.0831 20.3951 64.2779C20.8327 63.6555 21.5272 63.3103 22.2344 63.0387L26.3742 61.449L24.0048 51.2689L19.8276 52.6955C17.5753 53.082 5.07338 65.3917 11.0146 70.1314Z" fill="#7288EA"/>
<path d="M100.77 52.0906C98.6812 45.2876 93.0316 50.0848 89.9076 51.1616C89.2251 51.3968 88.4923 51.2576 87.7884 51.0543L83.5082 49.8179L79.9532 59.5997L84.1432 60.9831C86.1958 62.0423 103.076 59.5999 100.77 52.0906Z" fill="#7288EA"/>
<path d="M83.6629 29.036C83.5363 23.6512 80.8653 20.9587 75.6498 20.9587H30.8755C25.6853 20.9587 23.027 23.6512 22.9004 29.036V74.2281C23.027 79.6399 25.6853 82.3458 30.8755 82.3458H75.6498C80.8653 82.3458 83.5363 79.6399 83.6629 74.2281V29.036Z" fill="#779BEB"/>
<path d="M36.4975 35.5361C35.0037 37.1246 34.2568 39.0228 34.2568 41.2306C34.2568 43.4653 35.0037 45.3634 36.4975 46.925C37.9659 48.5135 39.7508 49.3078 41.8522 49.3078C43.9535 49.3078 45.7384 48.5135 47.2068 46.925C48.7006 45.3634 49.4475 43.4653 49.4475 41.2306C49.4475 39.0228 48.7006 37.1246 47.2068 35.5361C45.7384 33.9476 43.9535 33.1533 41.8522 33.1533C39.7508 33.1533 37.9659 33.9476 36.4975 35.5361Z" fill="white"/>
<path d="M45.6159 43.6775C46.2476 43.0058 46.5634 42.1901 46.5634 41.2305C46.5634 40.2901 46.2476 39.484 45.6159 38.8123C44.9843 38.1213 44.2173 37.7759 43.3149 37.7759C42.4306 37.7759 41.6726 38.1213 41.041 38.8123C40.3913 39.484 40.0664 40.2901 40.0664 41.2305C40.0664 42.1901 40.3913 43.0058 41.041 43.6775C41.6726 44.3492 42.4306 44.6851 43.3149 44.6851C44.2173 44.6851 44.9843 44.3492 45.6159 43.6775Z" fill="#3D465D"/>
<path d="M59.2831 35.5361C57.7894 37.1246 57.0425 39.0228 57.0425 41.2306C57.0425 43.4653 57.7894 45.3634 59.2831 46.925C60.7515 48.5135 62.5364 49.3078 64.6378 49.3078C66.7392 49.3078 68.5241 48.5135 69.9925 46.925C71.4862 45.3634 72.2331 43.4653 72.2331 41.2306C72.2331 39.0228 71.4862 37.1246 69.9925 35.5361C68.5241 33.9476 66.7392 33.1533 64.6378 33.1533C62.5364 33.1533 60.7515 33.9476 59.2831 35.5361Z" fill="white"/>
<path d="M69.0288 43.6537C69.6544 42.9885 69.9671 42.1807 69.9671 41.2304C69.9671 40.2991 69.6544 39.5009 69.0288 38.8356C68.4033 38.1514 67.6438 37.8093 66.7502 37.8093C65.8744 37.8093 65.1238 38.1514 64.4983 38.8356C63.8549 39.5009 63.5332 40.2991 63.5332 41.2304C63.5332 42.1807 63.8549 42.9885 64.4983 43.6537C65.1238 44.3189 65.8744 44.6515 66.7502 44.6515C67.6438 44.6515 68.4033 44.3189 69.0288 43.6537Z" fill="#3D465D"/>
<path d="M59.4731 54.5174V54.477C59.7769 54.2347 60.0681 53.9924 60.3466 53.7501C60.6504 53.4539 60.815 53.0904 60.8403 52.6596C60.8656 52.2019 60.739 51.8115 60.4605 51.4884C60.182 51.1384 59.8402 50.95 59.4351 50.923C59.0047 50.8961 58.6376 51.0307 58.3338 51.3269C58.1313 51.5154 57.9161 51.7038 57.6882 51.8923H57.6502C56.435 52.8616 54.9666 53.3462 53.245 53.3462C51.4727 53.3462 49.9663 52.8616 48.7258 51.8923C48.5738 51.7577 48.4346 51.6231 48.308 51.4884C48.0295 51.1384 47.6877 50.95 47.2826 50.923C46.8522 50.8961 46.4851 51.0307 46.1813 51.3269C45.8522 51.6231 45.675 52 45.6496 52.4577C45.6243 52.8885 45.7509 53.2789 46.0294 53.6289C46.2573 53.8982 46.5358 54.1674 46.8649 54.4366C46.8902 54.4366 46.9029 54.4501 46.9029 54.477C48.6498 55.8771 50.7638 56.5771 53.245 56.5771C55.6755 56.5771 57.7515 55.8905 59.4731 54.5174Z" fill="#3D465D"/>
<path d="M75.6498 20.9587C80.8653 20.9587 83.5363 23.6511 83.6629 29.0359V26.2089C83.6629 20.5548 80.9919 17.7278 75.6498 17.7278H30.8755C25.5588 17.7278 22.9004 20.5548 22.9004 26.2089V29.0359C23.027 23.6511 25.6853 20.9587 30.8755 20.9587H75.6498Z" fill="url(#paint0_linear_449_167)"/>
<ellipse cx="4.58305" cy="4.23993" rx="4.58305" ry="4.23993" transform="matrix(0.99864 -0.0521369 0.0460903 0.998937 29.4849 51.3979)" fill="#93C0F0"/>
<ellipse cx="4.58305" cy="4.23993" rx="4.58305" ry="4.23993" transform="matrix(0.99864 -0.0521369 0.0460903 0.998937 64.7573 51.7773)" fill="#93C0F0"/>
<path d="M69.0623 21C66.8335 25.4407 62.9153 26.9272 61.2349 27.1154L62.8711 21H69.0623Z" fill="#668CDF"/>
<path d="M59.0202 99.5103L57.437 86.6288L49.8522 87.2435V99.7497H35.2589C29.2984 98.0361 33.9248 95.0743 36.983 93.8075V87.2435C26.2936 86.3591 23.1407 79.3394 22.9004 75.3528C44.1018 86.474 72.2426 79.9866 83.6629 75.3528C81.1205 83.4359 74.1865 85.3125 71.0373 85.2403C71.0373 85.2403 70.591 93.4766 73.9363 94.6636C78.2754 97.4339 76.3714 99.049 74.8771 99.5103H59.0202Z" fill="#4D63C8"/>
<path d="M54.0477 22.6817C63.4405 7.52483 69.4517 20.9083 61.1585 28.4755C50.2652 33.4324 45.4238 26.4101 44.3647 22.2793C47.5419 9.40439 54.0477 16.3246 54.0477 22.6817Z" fill="#779BEB"/>
<rect width="2.73248" height="32.8126" rx="1.36624" transform="matrix(0.932648 0.360786 -0.323493 0.946231 101.712 33.0908)" fill="black"/>
<path d="M11.2068 31.842C14.5555 30.061 14.6951 24.028 14.3463 21.2341L14.0347 19.7014L12.0687 20.9068C12.4094 22.879 12.5116 27.3766 10.1949 29.5889C1.1924 29.9739 7.2382 33.8637 0.509781 33.8637C-1.4336 35.9062 11.2068 39.5254 11.2068 31.842Z" fill="#FFB600"/>
<path d="M22.8955 27.1095L18.1562 18.7718L32.9736 8.69189L38.065 18.1029L31.2046 21.2398C29.9776 21.8008 28.82 22.5024 27.755 23.3306L22.8955 27.1095Z" fill="black"/>
<rect width="34.5628" height="5.80359" rx="2.9018" transform="matrix(0.865434 -0.501022 0.455479 0.890246 8.59082 17.6221)" fill="black"/>
<defs>
<linearGradient id="paint0_linear_449_167" x1="53.0918" y1="17.5259" x2="53.0918" y2="52.6619" gradientUnits="userSpaceOnUse">
<stop stop-color="#95C2F0"/>
<stop offset="1" stop-color="#6B8EE9"/>
</linearGradient>
<clipPath id="clip0_449_167">
<rect width="32.8185" height="8.21414" fill="white" transform="translate(105.611 31.99)"/>
</clipPath>
</defs>
</svg>
