<svg width="103" height="100" viewBox="0 0 103 100" fill="none" xmlns="http://www.w3.org/2000/svg">
<path d="M54.6023 24.2794C40.142 23.7426 31.6085 24.6575 29.0019 27.024C26.3952 29.3904 24.9366 37.5471 24.626 51.4939C24.4026 63.4323 25.1661 71.1994 26.9163 74.795C27.0638 74.862 27.2217 74.9397 27.39 75.0281C31.202 76.8323 39.0201 77.9333 50.8445 78.3312C65.2831 78.8877 73.8165 77.9728 76.4449 75.5866C79.0515 73.2201 80.5102 65.0635 80.8208 51.1167C81.1173 39.7147 80.4566 32.1157 78.8385 28.3197C78.7779 28.1738 78.7064 28.0377 78.6241 27.9115C75.0492 25.9724 67.042 24.7617 54.6023 24.2794Z" fill="#FF86C9"/>
<path d="M52.1053 21.7235C37.645 21.1867 29.1115 22.1015 26.5049 24.468C23.8982 26.8345 22.4396 34.9911 22.1289 48.938C21.8599 62.9274 22.9531 71.1788 25.4085 73.6921C25.783 74.0755 26.2856 74.4431 26.9163 74.795C25.1661 71.1993 24.4026 63.4323 24.6259 51.4939C24.9366 37.5471 26.3952 29.3904 29.0019 27.0239C31.6085 24.6575 40.142 23.7426 54.6023 24.2794C67.0419 24.7617 75.0492 25.9724 78.6241 27.9114C78.2767 27.2622 77.9158 26.7459 77.5412 26.3625C75.0859 23.8492 66.6072 22.3028 52.1053 21.7235Z" fill="#FFB0DC"/>
<path d="M39.645 70.7699C40.2365 65.5902 41.4683 62.5522 43.029 61.621C45.1308 60.9745 45.7399 61.5519 45.7817 61.9213L57.1106 61.8075C57.4229 61.0147 59.6306 61.4518 60.056 61.7574C62.0324 63.1774 63.2804 70.0942 63.1701 70.0942C63.6467 73.2537 61.236 73.5461 59.9711 73.2974C57.8531 73.1882 57.5222 69.149 56.6996 69.149C55.2368 69.8766 54.0197 69.4095 53.5939 69.085L49.2636 69.085C48.8911 69.6683 47.0211 69.7561 46.3521 69.2481C45.7828 68.8158 45.1554 70.7086 44.8645 71.7444C44.0553 73.9273 39.7909 74.5227 39.645 70.7699Z" fill="#484848"/>
<path d="M56.3391 92.4478L54.8709 82.4305L48.3802 82.8678L48.4891 92.585L35.9905 92.5074C30.8706 91.1442 34.8071 88.8675 37.4153 87.8995L37.3582 82.7993C28.1954 82.0553 25.4339 76.5842 25.1934 73.4854C42.88 81.2732 67.8607 77.4954 77.6014 73.9557C75.4943 80.2227 69.2048 81.4968 66.507 81.424C66.507 81.424 66.1965 87.8212 69.072 88.7612C72.8124 90.9368 71.1958 92.1817 69.9199 92.5321L56.3391 92.4478Z" fill="#FF62B9"/>
<path d="M42.8644 37.4893C41.0683 37.5947 39.5866 38.228 38.4194 39.3892C37.2306 40.5517 36.6972 41.8888 36.8193 43.4004C36.9429 44.9305 37.6863 46.1926 39.0494 47.1869C40.3923 48.2009 41.9618 48.6553 43.7579 48.5499C45.5539 48.4445 47.0356 47.8113 48.2028 46.65C49.3931 45.5059 49.9265 44.1689 49.8029 42.6388C49.6808 41.1272 48.9374 39.865 47.5729 38.8523C46.2299 37.8383 44.6604 37.384 42.8644 37.4893Z" fill="white"/>
<path d="M43.2738 41.7108C42.3736 41.7636 41.6247 42.0906 41.0272 42.6918C40.41 43.2783 40.1324 43.9551 40.1944 44.722C40.2576 45.5046 40.642 46.1503 41.3477 46.6593C42.035 47.1694 42.8288 47.398 43.729 47.3452C44.6476 47.2914 45.4063 46.9717 46.0051 46.3861C46.6039 45.8006 46.8717 45.1166 46.8084 44.334C46.7465 43.5671 46.3719 42.9286 45.6846 42.4186C44.996 41.8928 44.1924 41.6569 43.2738 41.7108Z" fill="#3D465D"/>
<path d="M61.6749 36.959C59.8788 37.0644 58.3972 37.6977 57.23 38.8589C56.0411 40.0215 55.5078 41.3585 55.6299 42.8701C55.7535 44.4002 56.4968 45.6624 57.8599 46.6567C59.2029 47.6707 60.7724 48.125 62.5684 48.0196C64.3645 47.9143 65.8461 47.281 67.0133 46.1197C68.2037 44.9757 68.7371 43.6386 68.6135 42.1085C68.4913 40.5969 67.748 39.3348 66.3834 38.322C65.0405 37.308 63.471 36.8537 61.6749 36.959Z" fill="white"/>
<path d="M60.7339 40.5566C59.7218 40.6159 58.8799 40.9835 58.2082 41.6594C57.5144 42.3188 57.2023 43.0796 57.272 43.9418C57.343 44.8215 57.7752 45.5475 58.5685 46.1197C59.3412 46.6931 60.2335 46.9502 61.2456 46.8908C62.2783 46.8302 63.1312 46.4708 63.8044 45.8126C64.4775 45.1544 64.7785 44.3854 64.7075 43.5056C64.6378 42.6435 64.2167 41.9257 63.444 41.3522C62.67 40.7612 61.7666 40.496 60.7339 40.5566Z" fill="#3D465D"/>
<path d="M35.3167 39.6893C35.489 39.9385 35.7621 40.0892 36.1359 40.1414L48.8974 42.2822C49.2496 42.3356 49.582 42.2791 49.8947 42.1125C50.1857 41.9473 50.3619 41.7054 50.4231 41.387L50.9327 39.2178C50.994 38.8994 50.9284 38.6254 50.7359 38.3959C50.5188 38.1308 50.2342 37.9716 49.882 37.9181L37.1205 35.7773C36.7467 35.7252 36.4258 35.7903 36.1579 35.9727C35.8437 36.1208 35.656 36.354 35.5948 36.6725L35.0851 38.8416C35.0239 39.1601 35.1011 39.4427 35.3167 39.6893Z" fill="#3D465D"/>
<path d="M53.354 38.0486C53.0152 38.1611 52.7704 38.3607 52.6196 38.6473C52.4442 38.8984 52.4125 39.1781 52.5244 39.4864L53.378 41.5756C53.4899 41.8839 53.7141 42.1022 54.0506 42.2307C54.3654 42.3604 54.6922 42.369 55.031 42.2565L67.3301 38.6735C67.692 38.5782 67.9484 38.3872 68.0991 38.1005C68.2529 37.8507 68.2738 37.5716 68.162 37.2633L67.3083 35.1742C67.1964 34.8659 66.9831 34.6469 66.6682 34.5171C66.3533 34.3874 66.015 34.3703 65.653 34.4656L53.354 38.0486Z" fill="#3D465D"/>
<path d="M58.8565 50.1422C58.5362 49.9449 58.1969 49.9168 57.8387 50.0578C57.5002 50.1737 57.2461 50.3927 57.0764 50.7148C56.9245 50.9878 56.696 51.2533 56.3907 51.5113C55.6344 52.1078 54.7153 52.4378 53.6333 52.5013C53.1356 52.5305 52.6665 52.51 52.226 52.4398C51.8524 52.3897 51.5227 52.481 51.2372 52.7139C50.9477 52.8989 50.7761 53.1971 50.7224 53.6084C50.6648 53.9719 50.7577 54.3145 51.0011 54.6364C51.1974 54.913 51.4942 55.0876 51.8914 55.1603C52.4872 55.2694 53.1422 55.303 53.8563 55.2612C55.5225 55.1634 56.9268 54.6489 58.0691 53.7176L58.0395 53.7553C58.7347 53.2104 59.2304 52.6171 59.5264 51.9755C59.6725 51.6309 59.6878 51.2818 59.5723 50.9285C59.4332 50.5525 59.1946 50.2904 58.8565 50.1422Z" fill="#3D465D"/>
<path d="M60.2837 70.8692C57.2205 66.8371 60.9408 64.9161 64.1057 63.4319C66.417 62.348 67.9366 60.347 68.9955 58.0559L69.6409 56.6597L79.5671 59.2221L77.9449 63.1165C77.4479 65.2287 64.6572 76.6259 60.2837 70.8692Z" fill="#FF86C9"/>
<path d="M42.8842 67.714C45.8405 63.9044 42.3347 61.7156 39.3961 60.0006C37.2842 58.7682 35.9701 56.7563 35.0793 54.5345L34.422 52.8952L25.1099 54.7095L26.5497 58.7013C26.9734 60.838 38.6934 73.1143 42.8842 67.714Z" fill="#FF86C9"/>
</svg>
